<svg id="Layer_1" data-name="Layer 1" xmlns="http://www.w3.org/2000/svg" viewBox="0 0 352.84 434.44"><defs><style>.cls-1{fill:#a97c50;}.cls-1,.cls-2,.cls-3,.cls-4,.cls-5,.cls-8{stroke:#a97c50;}.cls-1,.cls-10,.cls-11,.cls-2,.cls-3,.cls-4,.cls-5,.cls-6,.cls-7,.cls-8,.cls-9{stroke-miterlimit:10;}.cls-1,.cls-2,.cls-8{stroke-width:5px;}.cls-10,.cls-11,.cls-2,.cls-3,.cls-4{fill:none;}.cls-3{stroke-width:18px;}.cls-4,.cls-5{stroke-width:23px;}.cls-5,.cls-6{fill:#d7df23;}.cls-6{stroke:#754c29;}.cls-10,.cls-11,.cls-6,.cls-7,.cls-9{stroke-width:2px;}.cls-7{fill:#231f20;stroke:#231f20;}.cls-8{fill:#754c29;}.cls-9{fill:#603913;}.cls-10,.cls-9{stroke:#603913;}.cls-11{stroke:#726658;}.cls-12{fill:#726658;}</style></defs><circle class="cls-1" cx="176.42" cy="258.03" r="173.92"/><line class="cls-2" x1="43.13" y1="146.32" x2="130.02" y2="107.95"/><line class="cls-3" x1="119.96" y1="93.48" x2="130.02" y2="107.95"/><path class="cls-4" d="M170.07,371.73C187,314,205,256,222.41,197.6" transform="translate(-128.17 -194.31)"/><line class="cls-4" x1="151.79" y1="100.71" x2="92.98" y2="7.47"/><line class="cls-4" x1="130.02" y1="107.95" x2="93.74" y2="36.42"/><line class="cls-4" x1="111.88" y1="115.96" x2="86.58" y2="54.09"/><line class="cls-4" x1="93.91" y1="123.9" x2="80.26" y2="72.18"/><line class="cls-4" x1="86.58" y1="142.17" x2="75.07" y2="98.04"/><path class="cls-4" d="M360.83,295C380,272,398,248,417,224c6-7,11-14,16.81-20.21" transform="translate(-128.17 -194.31)"/><line class="cls-4" x1="312.35" y1="149.54" x2="304.28" y2="11.18"/><line class="cls-4" x1="315.6" y1="170.16" x2="311.04" y2="127.14"/><line class="cls-4" x1="286.57" y1="135.95" x2="306.63" y2="51.46"/><line class="cls-4" x1="254.43" y1="127.14" x2="303.29" y2="65.53"/><line class="cls-5" x1="241.99" y1="112.1" x2="308.31" y2="36.42"/><ellipse class="cls-6" cx="118.4" cy="199.23" rx="26.18" ry="17.11"/><ellipse class="cls-6" cx="244.59" cy="199.23" rx="26.18" ry="17.11"/><circle class="cls-7" cx="118.44" cy="198.49" r="6.56"/><circle class="cls-7" cx="244.59" cy="199.23" r="6.56"/><rect class="cls-8" x="184.97" y="281.09" width="14.9"/><path class="cls-8" d="M281.24,496.43c3.67,0,7.33.3,11,.67,12.93-2.18,26.23-.71,39.26-.67h.07l1.09-1.34-28.06-34.22L276.52,495.1l2.27,2.77A2.77,2.77,0,0,1,281.24,496.43Z" transform="translate(-128.17 -194.31)"/><path class="cls-8" d="M213,301.14a49.22,49.22,0,0,1,11.09-.62c11.6-7.83,25.35-7,38.12-9.53h.07l.42-3.43-44.42-76.43L207.69,298.9l3.59,6.18C211.36,302.93,211.86,301.35,213,301.14Z" transform="translate(-128.17 -194.31)"/><path class="cls-8" d="M383,303.14a49.49,49.49,0,0,1,9.78,5.26c14-.63,25.27,7.26,37.49,11.78l.06,0,2.14-2.71,2-88.38L379.7,298.47l-.17,7.15C380.72,303.82,382,302.74,383,303.14Z" transform="translate(-128.17 -194.31)"/><line class="cls-9" x1="184.24" y1="283.25" x2="307.58" y2="249.89"/><line class="cls-10" x1="308.31" y1="276.09" x2="184.97" y2="283.05"/><line class="cls-10" x1="306.98" y1="294.46" x2="186.31" y2="286.13"/><line class="cls-11" x1="166.38" y1="283.32" x2="83.99" y2="268.3"/><line class="cls-10" x1="86.56" y1="296.2" x2="163.81" y2="284.39"/><line class="cls-10" x1="103.27" y1="310.98" x2="165.72" y2="284.39"/><line class="cls-10" x1="176.42" y1="293.4" x2="176.42" y2="367.86"/><path class="cls-10" d="M227.4,516.88c0,24.06,34.52,43.54,77.19,43.54" transform="translate(-128.17 -194.31)"/><path class="cls-10" d="M383.64,516.88c0,24.06-35.36,43.54-79.05,43.54" transform="translate(-128.17 -194.31)"/><path class="cls-12" d="M346.55,311.06c-1.89-9.51-3.62-21.46-9.56-29.41-5.09-6.82-16-10.18-22.69-4-4.36-1.74-10-2.17-13.5-3-2-.48-4.66.28-5.64,2.29-5,10.17-7.39,20.94-8.63,32.13-1.13,10.22-2.89,22.13-.69,32.28,1.06,4.92,3.93,8.35,6.74,12.33.48,1.56,1,3.12,1.58,4.67a72.49,72.49,0,0,1,2.91,10.09c0,.19,0,.37,0,.56-.41,4.33-2.37,8.3.95,12-.05.73-.1,1.47-.18,2.22-.92,8.64-3.37,17.05-4.68,25.63-1.13,7.39-2.27,16,.46,23.16,2.49,6.54,9,10.14,15.68,7.34,7.62-3.19,9.2-11.57,12.57-18.24,7.23-14.26,20.26-29.6,15.46-46.84a11,11,0,0,0-1.09-2.63c5.5-8.19,9-18.32,10.68-26.54C349.24,333.77,348.8,322.41,346.55,311.06Zm-18.62,53.4,0,0c.43-.13.83-.29,1.22-.45-.49.81-1,1.61-1.53,2.38C327.76,365.73,327.84,365.09,327.93,364.46Zm10.13-28.57a37.49,37.49,0,0,0-.05-4.24c.1-.23.19-.47.29-.7C338.28,332.59,338.2,334.24,338.06,335.89Z" transform="translate(-128.17 -194.31)"/><path class="cls-12" d="M477.79,427.16a16,16,0,0,0-1.58-2.9c2.6-2.48,1.44-8.46-3.43-9-11.65-1.18-23.24,4.6-29.83,14.2-3.2,4.66-3.91,9.67-5.53,14.95-.85,2.76-2.84,4.87-3.66,7.61-1.07,3.58.14,7,1.65,10.26,6.19,13.18,7.95,26.3,3.61,40.43-1.71,5.57-3.28,11.12-1.45,16.88s6.8,11.08,12,14.18c5.42,3.25,9.53.09,11.93-4.91a176.79,176.79,0,0,0,7.91-19.55,196,196,0,0,0,9.27-41.65,186.9,186.9,0,0,0,1.19-21.55C479.83,440,480.19,433,477.79,427.16Z" transform="translate(-128.17 -194.31)"/><path class="cls-12" d="M171.22,403.17c1.64-7,5-13.67,1.78-20.8a12.46,12.46,0,0,0-6.42-6.44c-1.56-.7-8.49-.95-9-2.45-2-6.1-11.64-3.49-9.64,2.65,1.87,5.78,6.43,7.22,11.88,8.3,8.27,1.62,3,10.62,1.73,16.08-1.64,6.93-.32,13.65.75,20.55a70.41,70.41,0,0,1-9.78,48.07c-.68,1.1-3.74,5.69-3.81,5.68-1.79-.28-4.12-6.52-5.11-7.94-2.37-3.43-5.51-5.89-9.85-5.8-6.42.13-6.45,10.13,0,10,2.12-.05,4.61,6.73,5.81,8.4,2.85,3.94,7.23,6.4,12.13,4.67,5.67-2,9.28-9.27,11.9-14.21A81.29,81.29,0,0,0,173,427.21C172.5,419.36,169.39,411,171.22,403.17Z" transform="translate(-128.17 -194.31)"/></svg>