<svg id="Layer_1" data-name="Layer 1" xmlns="http://www.w3.org/2000/svg" viewBox="0 0 479.71 282.69"><defs><style>.cls-1{fill:none;stroke:#77d1f4;stroke-miterlimit:10;stroke-width:5px;}</style></defs><path class="cls-1" d="M163,313.65c26.44-45.61,88-59.27,137.53-30.53" transform="translate(-21.07 -258.92)"/><path class="cls-1" d="M54,348.73c23.56-40.65,72.32-56.34,109-35.08" transform="translate(-21.07 -258.92)"/><path class="cls-1" d="M135.2,440.15c-9.77,16.86-44.95,14.69-78.67-4.85" transform="translate(-21.07 -258.92)"/><path class="cls-1" d="M28.13,368.51c-12.06,20.82.64,50.69,28.4,66.79" transform="translate(-21.07 -258.92)"/><path class="cls-1" d="M28.13,368.51C36.47,354.13,48,345.29,54,348.73" transform="translate(-21.07 -258.92)"/><path class="cls-1" d="M135.2,440.15c-12.64,21.82,2,53.89,32.74,71.7" transform="translate(-21.07 -258.92)"/><path class="cls-1" d="M269,523.66c-11.21,19.34-56.39,14.05-101-11.81" transform="translate(-21.07 -258.92)"/><path class="cls-1" d="M372.13,515.16c-16.38,28.26-62.53,32.06-103.18,8.5" transform="translate(-21.07 -258.92)"/><path class="cls-1" d="M488.66,471.25c-26.73,46.11-78.84,65.75-116.53,43.91" transform="translate(-21.07 -258.92)"/><path class="cls-1" d="M488.66,471.25c19-32.72,9-73.85-22.2-91.95" transform="translate(-21.07 -258.92)"/><path class="cls-1" d="M466.46,379.3c17.53-30.25,2.42-71.69-33.77-92.67" transform="translate(-21.07 -258.92)"/><path class="cls-1" d="M300.51,283.12c17.53-30.25,76.65-28.68,132.18,3.51" transform="translate(-21.07 -258.92)"/></svg>