<svg id="Layer_1" data-name="Layer 1" xmlns="http://www.w3.org/2000/svg" viewBox="0 0 65.49 87.36"><defs><style>.cls-1,.cls-8{fill:none;stroke:#006838;}.cls-1,.cls-2,.cls-3,.cls-8{stroke-miterlimit:10;}.cls-2,.cls-3,.cls-4{fill:#808285;}.cls-2,.cls-3{stroke:#808285;}.cls-3{stroke-width:0.5px;}.cls-5{fill:#939598;}.cls-6{fill:#6d6e71;}.cls-7{fill:#e6e7e8;}.cls-8{stroke-width:6px;}</style></defs><rect class="cls-1" x="4.67" y="4.88" width="55.93" height="78.06"/><circle class="cls-2" cx="31.9" cy="41.09" r="0.73"/><circle class="cls-2" cx="20.95" cy="28.82" r="0.73"/><circle class="cls-2" cx="36.28" cy="28.82" r="0.73"/><circle class="cls-2" cx="35.55" cy="24.37" r="0.73"/><circle class="cls-2" cx="31.9" cy="25.1" r="0.73"/><circle class="cls-2" cx="33.36" cy="35.48" r="0.73"/><circle class="cls-2" cx="26.66" cy="28.08" r="0.73"/><circle class="cls-2" cx="41.54" cy="29.55" r="0.73"/><circle class="cls-2" cx="46.31" cy="31.01" r="0.73"/><circle class="cls-2" cx="23.6" cy="42.44" r="0.73"/><circle class="cls-2" cx="16.44" cy="36.21" r="0.73"/><circle class="cls-2" cx="37.82" cy="36.21" r="0.73"/><circle class="cls-2" cx="43" cy="51.27" r="0.73"/><circle class="cls-2" cx="47.77" cy="41.09" r="0.73"/><circle class="cls-2" cx="40.81" cy="43.18" r="0.73"/><circle class="cls-2" cx="42.64" cy="64.19" r="0.37"/><circle class="cls-2" cx="31.17" cy="43.18" r="0.73"/><circle class="cls-2" cx="40.72" cy="37.76" r="0.82"/><ellipse class="cls-2" cx="43.89" cy="36.21" rx="0.89" ry="0.73"/><circle class="cls-2" cx="39.35" cy="33.03" r="0.73"/><circle class="cls-2" cx="50.55" cy="51.27" r="0.73"/><circle class="cls-2" cx="29" cy="61.27" r="0.73"/><circle class="cls-2" cx="26.66" cy="47.65" r="0.73"/><circle class="cls-3" cx="35.55" cy="44.82" r="0.73"/><circle class="cls-2" cx="38.62" cy="49.11" r="0.73"/><path class="cls-4" d="M247.7,450.75c1.37-3-.07-7.33-4.33-7.33a5.07,5.07,0,0,0-2.1.43,5.87,5.87,0,0,0-.18-1.1c3.45-.47,4.7-4.06,3.74-6.8,3.71-1.68,3.63-7.76-.24-9.24a5.26,5.26,0,0,0-1.89-5.84c4-1.22,4.3-7,1-9.06a5.25,5.25,0,0,0,1-2.43c3.37-1.62,3.51-6.93.41-8.84,2-2.9.75-8.09-3.89-8.09a6.41,6.41,0,0,0-1,.09,5.29,5.29,0,0,0-.65-2.13c2.57-2.76,1.42-8.57-3.5-8.57-3.64,0-5.22,3.21-4.74,6a5.55,5.55,0,0,0-.72,0c-4.83,0-6,5.63-3.62,8.44a4.86,4.86,0,0,0-2.65-.72,5.17,5.17,0,0,0-1.28.15,4.94,4.94,0,0,0-1.25-2.34c3.83-2.17,3-9.39-2.46-9.39-4.95,0-6.09,5.92-3.42,8.65a5.66,5.66,0,0,0-.56.4,4.54,4.54,0,0,0-4.38-2.78,4.78,4.78,0,0,0-3,.94,5.24,5.24,0,0,0-1.22-.14,5.07,5.07,0,0,0-1.93.37,3.82,3.82,0,0,0-.07-.68l.56,0c6.43,0,6.44-10,0-10-3.58,0-5.17,3.1-4.77,5.85a4.69,4.69,0,0,0-.54-.06c-6.44,0-6.45,10,0,10a5.11,5.11,0,0,0,1.93-.36,5,5,0,0,0,1.94,4,5.88,5.88,0,0,0-1.14-.11c-5.18,0-6.19,6.49-3,9a5.25,5.25,0,0,0-2,6.24c-4.19,1.5-4.07,8.31.35,9.51a5.37,5.37,0,0,0-1.46,5.3c-1.72,2.68-.75,7.07,2.9,7.81-.26,2.67,1.33,5.57,4.8,5.57s5.08-2.93,4.78-5.62c2.95-2.58,1.95-8.74-3-8.87a5.53,5.53,0,0,0-.63-2.94l.26-.15a4.6,4.6,0,0,0,4.72,3.92,5,5,0,0,0,1.83-.33,4.42,4.42,0,0,0,2.51,2.28,5.46,5.46,0,0,0-1,4.45c-4.8,0-6,5.65-3.56,8.45a5.14,5.14,0,0,0-1.35,3.21,6.28,6.28,0,0,0-1-.09,5.07,5.07,0,0,0-1.9.35,4.54,4.54,0,0,0-4.37-2.76c-6.44,0-6.45,10,0,10a5.15,5.15,0,0,0,1.9-.35,4.52,4.52,0,0,0,4.37,2.76,4.68,4.68,0,0,0,4.81-4.6l.11,0a4.56,4.56,0,0,0,4.56,3.29c6.13,0,6.43-9.07.87-9.93a5,5,0,0,0-1-1.74,5.39,5.39,0,0,0,1.27-4.74c3.35,0,4.93-2.78,4.75-5.39a6.17,6.17,0,0,0,1,.09,4.64,4.64,0,0,0,3.23-1.17,4.85,4.85,0,0,0,7.87,3.82,5.68,5.68,0,0,0,.19,1.88c-4.34.59-5.21,6.13-2.57,8.68,0,0-.05.11-.08.17a5.13,5.13,0,0,0-1.57-.23h-.25A4.3,4.3,0,0,0,229,446c3.43-2.4,2.5-9.17-2.8-9.17-5.75,0-6.37,8-1.85,9.67-3.42,2.4-2.49,9.17,2.81,9.17l.22,0a4.87,4.87,0,0,0,8.35-.2,5.44,5.44,0,0,0,1.56.22,5.25,5.25,0,0,0,1.79-.3,4.54,4.54,0,0,0,4.48,3C247.94,458.4,249.33,453.71,247.7,450.75Zm-36-39.09a5.19,5.19,0,0,0-1.58-.24,4.7,4.7,0,0,0-3,1,4.93,4.93,0,0,0-1.71-3c2.93-1.73,3.05-6.48.35-8.46a5.1,5.1,0,0,0,1.13.11,4.73,4.73,0,0,0,3-.93,5.93,5.93,0,0,0,1.22.13h.22a5.41,5.41,0,0,0-1,6.94,5.26,5.26,0,0,0,1.48,4.2C211.72,411.44,211.7,411.55,211.67,411.66Zm2.32,9.48a4.39,4.39,0,0,0-.9-.69,4.85,4.85,0,0,0,1.69-2.8,4.54,4.54,0,0,0,.83.18A5,5,0,0,0,214,421.14Zm15.23,8.51a4.71,4.71,0,0,0-4.82-4.88,5.08,5.08,0,0,0-2.06.41,5.51,5.51,0,0,0,.4-6.4,5.73,5.73,0,0,0,.85.07,4.83,4.83,0,0,0,2.75-.79,5.06,5.06,0,0,0,2,4.29c-.72,2.39.19,5.33,2.72,6.3A4.34,4.34,0,0,0,229.22,429.65Zm8,4.2a4.92,4.92,0,0,0-2.94-5.05A4.37,4.37,0,0,0,236,428a4.37,4.37,0,0,0,2.18,1.82,5.75,5.75,0,0,0,.09,3.48A4,4,0,0,0,237.24,433.85Zm-4.48-22.72a4.78,4.78,0,0,0,2.7-.76,4.65,4.65,0,0,0,1.91,2.46,5.36,5.36,0,0,0,1,7.52,4.35,4.35,0,0,0-1.48.77,4.37,4.37,0,0,0-1.2-1.3c.87-2.9-.65-6.63-4.59-6.63a4.77,4.77,0,0,0-2.73.8,4.89,4.89,0,0,0-8-4,4.79,4.79,0,0,0-.7-.86,116.61,116.61,0,0,0-1.05-7.18,6.08,6.08,0,0,0,1.09-.16,4.59,4.59,0,0,0,4.68,3.71c4.83,0,6-5.64,3.62-8.45a4.86,4.86,0,0,0,2.65.73,5,5,0,0,0,2.12-.44,4.86,4.86,0,0,0,2.7.76,6.17,6.17,0,0,0,1-.09,4.88,4.88,0,0,0,2.2,3.74,5.22,5.22,0,0,0-.88,2.26,3.2,3.2,0,0,0-.51.29,4.56,4.56,0,0,0-4.53-3.18C226.32,401.13,226.31,411.13,232.76,411.13Z" transform="translate(-188.92 -376.12)"/><path class="cls-5" d="M225.52,403.06c-6.43,0-6.44,10,0,10S232,403.06,225.52,403.06Z" transform="translate(-188.92 -376.12)"/><path class="cls-5" d="M213.46,396.15c-6.43,0-6.44,10,0,10S219.91,396.15,213.46,396.15Z" transform="translate(-188.92 -376.12)"/><path class="cls-5" d="M201.73,387c-6.44,0-6.45,10,0,10S208.17,387,201.73,387Z" transform="translate(-188.92 -376.12)"/><path class="cls-5" d="M201.24,397.76c-6.43,0-6.44,10,0,10S207.69,397.76,201.24,397.76Z" transform="translate(-188.92 -376.12)"/><path class="cls-5" d="M201.41,415.44c-6.44,0-6.45,10,0,10S207.85,415.44,201.41,415.44Z" transform="translate(-188.92 -376.12)"/><path class="cls-5" d="M201.24,436.83c-6.43,0-6.44,10,0,10S207.69,436.83,201.24,436.83Z" transform="translate(-188.92 -376.12)"/><path class="cls-5" d="M209.93,442.46c-6.44,0-6.45,10,0,10S216.37,442.46,209.93,442.46Z" transform="translate(-188.92 -376.12)"/><path class="cls-5" d="M223.27,447.28c-6.43,0-6.44,10,0,10S229.72,447.28,223.27,447.28Z" transform="translate(-188.92 -376.12)"/><path class="cls-5" d="M223.27,435.54c-6.43,0-6.44,10,0,10S229.72,435.54,223.27,435.54Z" transform="translate(-188.92 -376.12)"/><path class="cls-5" d="M230.67,426.7c-6.44,0-6.45,10,0,10S237.11,426.7,230.67,426.7Z" transform="translate(-188.92 -376.12)"/><path class="cls-5" d="M223.59,414.48c-6.43,0-6.44,10,0,10S230,414.48,223.59,414.48Z" transform="translate(-188.92 -376.12)"/><path class="cls-5" d="M243.05,405.48a4.54,4.54,0,0,0-4.47,3,5.36,5.36,0,0,0-1.16-.12c-6.43,0-6.44,10,0,10a4.56,4.56,0,0,0,4.47-3,6.07,6.07,0,0,0,1.16.12C249.48,415.48,249.49,405.48,243.05,405.48Z" transform="translate(-188.92 -376.12)"/><path class="cls-5" d="M233.24,395.83c-6.43,0-6.44,10,0,10S239.69,395.83,233.24,395.83Z" transform="translate(-188.92 -376.12)"/><path class="cls-5" d="M223.27,386c-6.43,0-6.44,10,0,10S229.72,386,223.27,386Z" transform="translate(-188.92 -376.12)"/><path class="cls-5" d="M244.41,393.63c3.8-2.19,3-9.38-2.49-9.38a4.55,4.55,0,0,0-4,2.13,4.78,4.78,0,0,0-3-1c-6.44,0-6.45,10,0,10a4.55,4.55,0,0,0,4-2.13,4.67,4.67,0,0,0,2.34.95c-3.82,2.18-3,9.38,2.47,9.38C249.88,403.58,250.12,394.34,244.41,393.63Z" transform="translate(-188.92 -376.12)"/><path class="cls-5" d="M241.76,435.22c-6.43,0-6.44,10,0,10S248.21,435.22,241.76,435.22Z" transform="translate(-188.92 -376.12)"/><path class="cls-5" d="M243.69,416.73c-6.43,0-6.44,10,0,10S250.14,416.73,243.69,416.73Z" transform="translate(-188.92 -376.12)"/><path class="cls-5" d="M213,381.68c-6.43,0-6.44,10,0,10S219.43,381.68,213,381.68Z" transform="translate(-188.92 -376.12)"/><path class="cls-5" d="M210.25,427.5c-6.44,0-6.45,10,0,10S216.69,427.5,210.25,427.5Z" transform="translate(-188.92 -376.12)"/><path class="cls-5" d="M199.32,448.4c-6.44,0-6.45,10,0,10S205.76,448.4,199.32,448.4Z" transform="translate(-188.92 -376.12)"/><path class="cls-6" d="M230.19,408.37c-6.44,0-6.45,10,0,10S236.63,408.37,230.19,408.37Z" transform="translate(-188.92 -376.12)"/><path class="cls-6" d="M218.93,398.72c-6.43,0-6.44,10,0,10S225.38,398.72,218.93,398.72Z" transform="translate(-188.92 -376.12)"/><path class="cls-6" d="M199,392c-6.43,0-6.44,10,0,10S205.44,392,199,392Z" transform="translate(-188.92 -376.12)"/><path class="cls-6" d="M199.15,381.36c-6.43,0-6.44,10,0,10S205.6,381.36,199.15,381.36Z" transform="translate(-188.92 -376.12)"/><path class="cls-6" d="M225.84,381.52c-6.43,0-6.44,10,0,10S232.29,381.52,225.84,381.52Z" transform="translate(-188.92 -376.12)"/><path class="cls-6" d="M244,381.68c-6.43,0-6.44,10,0,10S250.46,381.68,244,381.68Z" transform="translate(-188.92 -376.12)"/><path class="cls-6" d="M244.17,398.88c-6.43,0-6.44,10,0,10S250.62,398.88,244.17,398.88Z" transform="translate(-188.92 -376.12)"/><path class="cls-6" d="M226.49,421.55c-6.44,0-6.45,10,0,10S232.93,421.55,226.49,421.55Z" transform="translate(-188.92 -376.12)"/><path class="cls-6" d="M213.63,426.86a4.61,4.61,0,0,0-3.73,1.69,4.88,4.88,0,0,0-8.18-3.11,4.88,4.88,0,0,0-2.57-.67c-6.43,0-6.44,10,0,10a4.68,4.68,0,0,0,3.39-1.31,4.87,4.87,0,0,0,2.56.67,4.6,4.6,0,0,0,3.73-1.7,4.65,4.65,0,0,0,4.8,4.43C220.06,436.86,220.07,426.86,213.63,426.86Z" transform="translate(-188.92 -376.12)"/><path class="cls-6" d="M215.07,415.28c-6.43,0-6.44,10,0,10S221.52,415.28,215.07,415.28Z" transform="translate(-188.92 -376.12)"/><path class="cls-6" d="M207.19,436.19a4.68,4.68,0,0,0-4.81,4.68,4.68,4.68,0,0,0-3.39-1.31c-6.43,0-6.44,10,0,10a4.68,4.68,0,0,0,4.82-4.68,4.66,4.66,0,0,0,3.38,1.31C213.63,446.19,213.64,436.19,207.19,436.19Z" transform="translate(-188.92 -376.12)"/><path class="cls-6" d="M208.32,401.94a4.66,4.66,0,0,0-4.79,4.32,4.55,4.55,0,0,0-4.54-3.2c-4.75,0-6,5.45-3.73,8.3-2.26,2.86-1,8.3,3.73,8.3s6-5.45,3.74-8.3a5.2,5.2,0,0,0,1.05-2.62,4.56,4.56,0,0,0,4.54,3.2C214.75,411.94,214.76,401.94,208.32,401.94Z" transform="translate(-188.92 -376.12)"/><path class="cls-6" d="M219.25,440.85c-4.45,0-5.82,4.78-4.11,7.73h-.39c-6.43,0-6.44,10,0,10,4.45,0,5.83-4.79,4.12-7.74l.38,0C225.69,450.85,225.7,440.85,219.25,440.85Z" transform="translate(-188.92 -376.12)"/><path class="cls-6" d="M232.92,439.72a5.54,5.54,0,0,0-1.18.13c.82-2.9-.71-6.56-4.61-6.56-6.43,0-6.44,10,0,10a5.55,5.55,0,0,0,1.18-.12,5.38,5.38,0,0,0,1.37,5.38,5.58,5.58,0,0,0-1.26-.15c-6.44,0-6.45,10,0,10,5.06,0,6.14-6.19,3.23-8.82a5.68,5.68,0,0,0,1.27.14C239.35,449.72,239.36,439.72,232.92,439.72Z" transform="translate(-188.92 -376.12)"/><path class="cls-6" d="M244,432.65a5.09,5.09,0,0,0-2,.38,5.08,5.08,0,0,0,0-1,5.23,5.23,0,0,0,1.93.36c6.44,0,6.45-10,0-10a4.76,4.76,0,0,0-4.81,5.34,5.32,5.32,0,0,0-1.94-.36c-6.43,0-6.44,10,0,10a5.29,5.29,0,0,0,2-.37,5.49,5.49,0,0,0,.73,3.53c-2,2.85-.8,7.91,3.64,8.09-6,.41-5.9,10,.4,10s6.44-9.74.24-10c4.19-.29,5.4-5,3.65-7.83C250,437.85,248.66,432.65,244,432.65Z" transform="translate(-188.92 -376.12)"/><path class="cls-7" d="M218.93,381.52c-6.43,0-6.44,10,0,10S225.38,381.52,218.93,381.52Z" transform="translate(-188.92 -376.12)"/><path class="cls-7" d="M207.84,386.18c-6.44,0-6.45,10,0,10S214.28,386.18,207.84,386.18Z" transform="translate(-188.92 -376.12)"/><path class="cls-7" d="M198.83,414.32c-4.14,0-5.61,4.14-4.43,7.09-1.18,2.95.29,7.09,4.43,7.09s5.62-4.14,4.43-7.09C204.45,418.45,203,414.32,198.83,414.32Z" transform="translate(-188.92 -376.12)"/><path class="cls-7" d="M210.73,448.4a4.91,4.91,0,0,0-.67.05c.95-2.57-.06-6-3.06-6.77,6.3-.13,6.27-10-.13-10a4.64,4.64,0,0,0-4.76,4.1,4.69,4.69,0,0,0-3.28-1.2c-5.76,0-6.37,8-1.79,9.69-2.53,1-3.38,4.06-2.57,6.45-1.82,2.93-.48,7.85,4,7.85a4.68,4.68,0,0,0,3.31-1.24,4.59,4.59,0,0,0,3.61,1.56,4.72,4.72,0,0,0,3-1,5,5,0,0,0,2.28.51C217.17,458.4,217.18,448.4,210.73,448.4ZM203,442.16a5.22,5.22,0,0,0,.57-1.68,4.37,4.37,0,0,0,1.92,1A5,5,0,0,0,203,442.16Z" transform="translate(-188.92 -376.12)"/><path class="cls-7" d="M225.52,448.4a5,5,0,0,0-2.33.55,5.22,5.22,0,0,0-2-.38c-6.43,0-6.44,10,0,10a5,5,0,0,0,2.34-.55,5.17,5.17,0,0,0,2,.38C232,458.4,232,448.4,225.52,448.4Z" transform="translate(-188.92 -376.12)"/><path class="cls-7" d="M236.62,448.57c-6.44,0-6.45,10,0,10S243.06,448.57,236.62,448.57Z" transform="translate(-188.92 -376.12)"/><path class="cls-7" d="M244.33,442c-6.43,0-6.44,10,0,10S250.78,442,244.33,442Z" transform="translate(-188.92 -376.12)"/><path class="cls-7" d="M243.85,428.47c-6.43,0-6.44,10,0,10S250.3,428.47,243.85,428.47Z" transform="translate(-188.92 -376.12)"/><path class="cls-7" d="M247.38,411.44c2.53-2.77,1.37-8.54-3.53-8.54-5.08,0-6.15,6.24-3.2,8.86-2.54,2.78-1.37,8.54,3.52,8.54C249.26,420.3,250.33,414.06,247.38,411.44Z" transform="translate(-188.92 -376.12)"/><path class="cls-7" d="M245.75,388.66c1.11-2.94-.37-7-4.47-7a4.59,4.59,0,0,0-4.66,3.62,4.59,4.59,0,0,0-4.67-3.62c-6.43,0-6.44,10,0,10a4.6,4.6,0,0,0,4.67-3.62,4.58,4.58,0,0,0,3.08,3.39c-1.11,2.94.38,7,4.47,7C250,398.43,250.56,390.15,245.75,388.66Z" transform="translate(-188.92 -376.12)"/><path class="cls-7" d="M227.77,396.79c-6.43,0-6.44,10,0,10S234.22,396.79,227.77,396.79Z" transform="translate(-188.92 -376.12)"/><path class="cls-7" d="M217.16,404.19a4.54,4.54,0,0,0-4.49,3.08,5,5,0,0,0-2.24-.51c4-2,3.29-9.48-2.27-9.48a4.55,4.55,0,0,0-4.5,3.09,4.56,4.56,0,0,0-4.51-3.09c-6.43,0-6.44,10,0,10a4.56,4.56,0,0,0,4.51-3.1,4.52,4.52,0,0,0,4.48,3.09c-4,2-3.3,9.49,2.27,9.49a4.54,4.54,0,0,0,4.49-3.08,5,5,0,0,0,2.26.51C223.6,414.19,223.61,404.19,217.16,404.19Z" transform="translate(-188.92 -376.12)"/><path class="cls-7" d="M232.12,432.65c-6.44,0-6.45,10,0,10S238.56,432.65,232.12,432.65Z" transform="translate(-188.92 -376.12)"/><path class="cls-4" d="M206.39,441.49c-3.61,0-5.2,3.15-4.76,5.92a5.56,5.56,0,0,0-1.19-.13c-6.43,0-6.44,10,0,10,3.61,0,5.2-3.15,4.76-5.92a5.56,5.56,0,0,0,1.19.13C212.82,451.49,212.84,441.49,206.39,441.49Z" transform="translate(-188.92 -376.12)"/><path class="cls-4" d="M204.62,421.07c-4.57,0-5.89,5-4,8-3.93,2.11-3.15,9.44,2.37,9.44,4.57,0,5.9-5,4-8C210.92,428.4,210.14,421.07,204.62,421.07Z" transform="translate(-188.92 -376.12)"/><path class="cls-4" d="M203.17,399.53a4.54,4.54,0,0,0-4.16,2.34c-3.9,2.13-3.11,9.43,2.4,9.43a4.53,4.53,0,0,0,4.16-2.35C209.47,406.83,208.68,399.53,203.17,399.53Z" transform="translate(-188.92 -376.12)"/><path class="cls-4" d="M223,395.35c-6.43,0-6.44,10,0,10S229.4,395.35,223,395.35Z" transform="translate(-188.92 -376.12)"/><path class="cls-4" d="M239.19,396.15c-6.43,0-6.45,10,0,10S245.63,396.15,239.19,396.15Z" transform="translate(-188.92 -376.12)"/><path class="cls-4" d="M237.1,414.16a5,5,0,0,0-1,.09,4.56,4.56,0,0,0-3.85-1.86c-6.44,0-6.45,10,0,10a5.07,5.07,0,0,0,1-.09,4.55,4.55,0,0,0,3.85,1.86C243.53,424.16,243.54,414.16,237.1,414.16Z" transform="translate(-188.92 -376.12)"/><path class="cls-4" d="M236.78,434.58a5,5,0,0,0-2.3.52c-5.73.7-5.51,10,.69,10a5,5,0,0,0,2.3-.53C243.2,443.84,243,434.58,236.78,434.58Z" transform="translate(-188.92 -376.12)"/><path class="cls-4" d="M217.64,445.19c-6.43,0-6.44,10,0,10S224.09,445.19,217.64,445.19Z" transform="translate(-188.92 -376.12)"/><rect class="cls-8" x="3" y="3" width="59.49" height="81.36"/></svg>