<svg id="Layer_1" data-name="Layer 1" xmlns="http://www.w3.org/2000/svg" viewBox="0 0 352.84 434.44"><defs><style>.cls-1{fill:#a97c50;}.cls-1,.cls-2,.cls-3,.cls-4,.cls-5,.cls-8{stroke:#a97c50;}.cls-1,.cls-10,.cls-11,.cls-2,.cls-3,.cls-4,.cls-5,.cls-6,.cls-7,.cls-8,.cls-9{stroke-miterlimit:10;}.cls-1,.cls-2,.cls-8,.cls-9{stroke-width:5px;}.cls-11,.cls-2,.cls-3,.cls-4{fill:none;}.cls-3{stroke-width:18px;}.cls-4,.cls-5{stroke-width:23px;}.cls-5,.cls-6{fill:#d7df23;}.cls-6{stroke:#754c29;}.cls-10,.cls-11,.cls-6,.cls-7{stroke-width:2px;}.cls-7{fill:#231f20;stroke:#231f20;}.cls-8{fill:#754c29;}.cls-9{fill:#f6aacb;stroke:#f27fa5;}.cls-10{fill:#603913;}.cls-10,.cls-11{stroke:#603913;}.cls-12{fill:#fff;}</style></defs><circle class="cls-1" cx="176.42" cy="258.03" r="173.92"/><line class="cls-2" x1="43.13" y1="146.32" x2="130.02" y2="107.95"/><line class="cls-3" x1="119.96" y1="93.48" x2="130.02" y2="107.95"/><path class="cls-4" d="M170.07,371.73C187,314,205,256,222.41,197.6" transform="translate(-128.17 -194.31)"/><line class="cls-4" x1="151.79" y1="100.71" x2="92.98" y2="7.47"/><line class="cls-4" x1="130.02" y1="107.95" x2="93.74" y2="36.42"/><line class="cls-4" x1="111.88" y1="115.96" x2="86.58" y2="54.09"/><line class="cls-4" x1="93.91" y1="123.9" x2="80.26" y2="72.18"/><line class="cls-4" x1="86.58" y1="142.17" x2="75.07" y2="98.04"/><path class="cls-4" d="M360.83,295C380,272,398,248,417,224c6-7,11-14,16.81-20.21" transform="translate(-128.17 -194.31)"/><line class="cls-4" x1="312.35" y1="149.54" x2="304.28" y2="11.18"/><line class="cls-4" x1="315.6" y1="170.16" x2="311.04" y2="127.14"/><line class="cls-4" x1="286.57" y1="135.95" x2="306.63" y2="51.46"/><line class="cls-4" x1="254.43" y1="127.14" x2="303.29" y2="65.53"/><line class="cls-5" x1="241.99" y1="112.1" x2="308.31" y2="36.42"/><ellipse class="cls-6" cx="118.4" cy="199.23" rx="26.18" ry="17.11"/><ellipse class="cls-6" cx="244.59" cy="199.23" rx="26.18" ry="17.11"/><circle class="cls-7" cx="118.44" cy="198.49" r="6.56"/><circle class="cls-7" cx="244.59" cy="199.23" r="6.56"/><rect class="cls-8" x="184.97" y="281.09" width="14.9"/><path class="cls-9" d="M281.24,496.43c3.67,0,7.33.3,11,.67,12.93-2.18,26.23-.71,39.26-.67h.07l1.09-1.34-28.06-34.22L276.52,495.1l2.27,2.77A2.77,2.77,0,0,1,281.24,496.43Z" transform="translate(-128.17 -194.31)"/><path class="cls-8" d="M213,301.14a49.22,49.22,0,0,1,11.09-.62c11.6-7.83,25.35-7,38.12-9.53h.07l.42-3.43-44.42-76.43L207.69,298.9l3.59,6.18C211.36,302.93,211.86,301.35,213,301.14Z" transform="translate(-128.17 -194.31)"/><path class="cls-8" d="M383,303.14a49.49,49.49,0,0,1,9.78,5.26c14-.63,25.27,7.26,37.49,11.78l.06,0,2.14-2.71,2-88.38L379.7,298.47l-.17,7.15C380.72,303.82,382,302.74,383,303.14Z" transform="translate(-128.17 -194.31)"/><line class="cls-10" x1="184.24" y1="283.25" x2="307.58" y2="249.89"/><line class="cls-11" x1="308.31" y1="276.09" x2="184.97" y2="283.05"/><line class="cls-11" x1="306.98" y1="294.46" x2="186.31" y2="286.13"/><line class="cls-11" x1="175.2" y1="283.32" x2="92.82" y2="268.3"/><line class="cls-11" x1="91.92" y1="294.31" x2="169.17" y2="282.5"/><line class="cls-11" x1="103.27" y1="310.98" x2="165.72" y2="284.39"/><line class="cls-11" x1="176.42" y1="293.4" x2="176.42" y2="367.86"/><path class="cls-11" d="M304.59,562.17c0,4.76-14.24,8.62-31.84,8.62" transform="translate(-128.17 -194.31)"/><path class="cls-11" d="M304.59,562.17c0,7.63,12.55,13.8,28.06,13.8" transform="translate(-128.17 -194.31)"/><path class="cls-11" d="M346.58,570.79c0,2.86-6.23,5.18-13.93,5.18" transform="translate(-128.17 -194.31)"/><path class="cls-12" d="M312.09,396.11c1.72-4.7,2.63-9.5.6-14.74a13.81,13.81,0,0,0-12.4-8.73A6.39,6.39,0,0,0,293.5,374c-2.19,2.11-3,5.81-4,8.59q-2.07,5.58-4.13,11.17c-2.69,7.33-4.07,13.93-2.31,21.68,1.56,6.86,6,15,2.38,21.86a5,5,0,0,0,2.36,6.95c.59,6.71,2.05,13.21,7.16,18A5.15,5.15,0,0,0,301,463a7.24,7.24,0,0,0,1.86-1.5c2,3.31,8.82,2.34,9.5-2.82,2.27-17.29.31-34.6-.23-51.94C312.06,403.22,312,399.67,312.09,396.11Zm-8.82,52.82a58.84,58.84,0,0,1,.19-7.43Q303.45,445.22,303.27,448.93Z" transform="translate(-128.17 -194.31)"/><path class="cls-12" d="M176.59,473.44a100.64,100.64,0,0,0,3-24.25,103.14,103.14,0,0,0-9-41.8c-.81-3.49-2.45-6.77-5.44-8.82-5.06-3.48-10.95-1.4-14.51,3.11-4.24,5.36-7.29,12.2-10.25,18.33a95.22,95.22,0,0,0-7.74,21.14,55.57,55.57,0,0,0-.53,21.65c1.33,7.42,4.51,14.31,6.5,21.56,4,14.61.63,30.28,6.69,44.49,3.69,8.65,17.41,24.37,24.46,10,6.19-12.62.26-26.15.68-39.34C170.72,490.54,174.45,482.07,176.59,473.44ZM161.1,533.75l-.47-.54c.08-.13.16-.26.23-.4a4.92,4.92,0,0,0,.56.29ZM147,429.53a14.23,14.23,0,0,0,.7,1.34,12.5,12.5,0,0,0-1.3,1.24c-.11-.13-.21-.26-.33-.38.06-.16.13-.33.19-.5C146.47,430.66,146.73,430.1,147,429.53Zm4.65,15.24a11.92,11.92,0,0,1,0,1.32c0,1-.12,2.09-.18,3.14A11.68,11.68,0,0,1,151.62,444.77Zm10.56-4.87q-.23.84-.42,1.68v-.34a46,46,0,0,0-.21-4.77c.2-.12.4-.24.59-.38C162.15,437.36,162.16,438.63,162.18,439.9Zm.07,47.65a70.65,70.65,0,0,0-1.42,7.38c.26-2.36.47-4.73.6-7.1A7.92,7.92,0,0,0,162.25,487.55Zm-2.14,13.95c.16-1.5.32-3,.49-4.5,0,.23,0,.47-.06.71a41.07,41.07,0,0,0-.06,5C160.35,502.28,160.23,501.89,160.11,501.5Zm-1.57-93.82a1.7,1.7,0,0,1,.94-.43c.26.51.5,1,.75,1.55a5.6,5.6,0,0,0-2.55,0l-.19.05A5.87,5.87,0,0,1,158.54,407.68Z" transform="translate(-128.17 -194.31)"/><path class="cls-12" d="M463.25,513.66c-9.26-4.39-20.71-3-27.93,4.64-4.13,4.39-6.07,10.27-7.41,16-1.61,6.92-3,13.9-4.54,20.85-.7,3.23-1,6.19-3.08,8.82-1.71,2.19-3.16,3.92-3.91,6.67-.81,3-.35,6.26-2.82,8.48-2.1,1.9-5.33,2.82-7.86,4a63.07,63.07,0,0,0-26.89,23.45c-3.52,5.42,5.14,10.44,8.63,5.05,6.08-9.37,14.49-15.94,24.63-20.44,4.25-1.88,8.57-3.95,11.17-8a18.22,18.22,0,0,0,2.25-6.84c.57-3.19,1.46-4.49,3.39-7,3.31-4.24,3.83-10.09,4.94-15.21,1.24-5.72,2.41-11.46,3.73-17.16,1.19-5.13,2.68-10.74,7.39-13.75a13.93,13.93,0,0,1,13.27-1C464,525,469.07,516.41,463.25,513.66Z" transform="translate(-128.17 -194.31)"/><path class="cls-12" d="M290.11,519.3c1.2-5.65-6.49-8.38-9-4.28H281c-19,.12-35.7,13.11-43.36,30.08-3.63,8-4.86,23.06-15.17,25.48-4.87,1.15-9,.88-12.67,4.8-2.67,2.82-3.8,7.5-7.05,9.68-5.32,3.56-.32,12.23,5.05,8.63,3.22-2.16,5.16-5,7.13-8.23,1.08-1.78,1.93-3.59,4-4.37s4.76-.46,6.93-1.05c9.35-2.54,14.14-11.5,17-20,3.15-9.2,6.31-17.42,13.44-24.36a35.82,35.82,0,0,1,23.85-10.63c.19,1.82.48,3.66.78,5.57.86,5.57-.25,8.22-5.13,11-3.76,2.09-7.45,4-10.2,7.38-3.11,3.86-4.95,8.61-7.62,12.77-5.56,8.66-12.88,15.41-21.06,21.53-7.33,5.49-14.33,11.3-16.94,20.45-1.76,6.2,7.88,8.84,9.65,2.65,2.53-8.9,11.74-13.76,18.54-19.16A83.77,83.77,0,0,0,268.36,564c2.33-4,3.86-8.54,7.84-11.18,3.46-2.3,7.44-3.65,10.45-6.64a16.11,16.11,0,0,0,4.69-11.6C291.39,529.45,289,524.37,290.11,519.3Z" transform="translate(-128.17 -194.31)"/></svg>