<svg id="Layer_1" data-name="Layer 1" xmlns="http://www.w3.org/2000/svg" viewBox="0 0 113.27 139.58"><defs><style>.cls-1{fill:#e6f3e4;}.cls-1,.cls-4,.cls-5{stroke:#006838;}.cls-1,.cls-2,.cls-3,.cls-4,.cls-5{stroke-miterlimit:10;}.cls-2,.cls-5{fill:#b8ddb3;}.cls-2{stroke:#b8ddb3;}.cls-3,.cls-4{fill:#006838;}.cls-3{stroke:#28b34b;}</style></defs><rect class="cls-1" x="0.7" y="0.5" width="111.87" height="138.58"/><rect class="cls-2" x="0.7" y="24.29" width="111.87" height="114.79"/><rect class="cls-3" x="3.2" y="2.59" width="53.43" height="19.2" rx="9.6"/><rect class="cls-3" x="58.3" y="2.59" width="52.18" height="19.2" rx="9.6"/><line class="cls-4" x1="12.82" y1="25.42" x2="13.22" y2="137.96"/><line class="cls-4" x1="29.72" y1="25.36" x2="30.12" y2="137.9"/><line class="cls-4" x1="45.96" y1="25.42" x2="46.36" y2="137.96"/><line class="cls-4" x1="62.86" y1="25.36" x2="63.26" y2="137.9"/><line class="cls-4" x1="81.31" y1="25.42" x2="81.71" y2="137.96"/><line class="cls-4" x1="98.21" y1="25.36" x2="98.62" y2="137.9"/><line class="cls-4" x1="112.37" y1="25.42" x2="112.77" y2="137.96"/><line class="cls-4" x1="0.5" y1="25.82" x2="0.9" y2="138.36"/><line class="cls-4" x1="112.9" y1="118.08" x2="0.36" y2="118.08"/><line class="cls-4" x1="112.9" y1="139.08" x2="0.36" y2="139.08"/><line class="cls-4" x1="112.9" y1="99.85" x2="0.36" y2="99.85"/><line class="cls-4" x1="112.9" y1="85.65" x2="0.36" y2="85.65"/><line class="cls-4" x1="112.9" y1="73.13" x2="0.36" y2="73.13"/><line class="cls-4" x1="112.9" y1="49.34" x2="0.36" y2="49.34"/><line class="cls-4" x1="112.9" y1="34.1" x2="0.36" y2="34.1"/><line class="cls-4" x1="112.9" y1="24.29" x2="0.36" y2="24.29"/><rect class="cls-5" x="34.51" y="8.85" width="41.74" height="12.94" rx="6.47"/></svg>