<svg id="Layer_1" data-name="Layer 1" xmlns="http://www.w3.org/2000/svg" viewBox="0 0 565.3 390.83"><defs><style>.cls-1{fill:#a97d51;}.cls-1,.cls-2,.cls-3,.cls-4,.cls-7{stroke:#a97d51;}.cls-1,.cls-11,.cls-2,.cls-3,.cls-4,.cls-5,.cls-6,.cls-7,.cls-8,.cls-9{stroke-miterlimit:10;}.cls-1,.cls-2,.cls-7,.cls-8{stroke-width:5px;}.cls-11,.cls-2,.cls-3,.cls-4,.cls-9{fill:none;}.cls-3{stroke-width:18px;}.cls-4{stroke-width:23px;}.cls-5{fill:#d7df28;stroke:#764d2a;}.cls-11,.cls-5,.cls-6,.cls-9{stroke-width:2px;}.cls-6{fill:#231f20;stroke:#231f20;}.cls-7{fill:#764d2a;}.cls-8{fill:#f6abcb;stroke:#f27fa5;}.cls-9{stroke:#603b17;}.cls-10{fill:#fff;}.cls-11{stroke:#736759;}.cls-12{fill:#736759;}</style></defs><ellipse class="cls-1" cx="159.67" cy="458.1" rx="148.67" ry="136.55" transform="translate(-325.59 377.01) rotate(-87.48)"/><line class="cls-2" x1="38.72" y1="137.6" x2="108.32" y2="107.83"/><line class="cls-3" x1="100.97" y1="95.13" x2="108.32" y2="107.83"/><path class="cls-4" d="M57.18,384.63c15.45-48.72,31.74-97.63,47.59-146.9" transform="translate(-20.59 -220.51)"/><line class="cls-4" x1="125.66" y1="102.4" x2="83.03" y2="20.75"/><line class="cls-4" x1="108.32" y1="107.83" x2="82.54" y2="45.5"/><line class="cls-4" x1="93.79" y1="114.05" x2="76.26" y2="60.34"/><line class="cls-4" x1="79.39" y1="120.21" x2="70.63" y2="75.57"/><line class="cls-4" x1="72.96" y1="135.56" x2="65.58" y2="97.47"/><path class="cls-4" d="M209.69,325.67c15.9-19,30.92-38.85,46.72-58.69,5-5.77,9.16-11.58,13.95-16.68" transform="translate(-20.59 -220.51)"/><line class="cls-4" x1="249.77" y1="149.63" x2="248.63" y2="31.2"/><line class="cls-4" x1="251.55" y1="167.35" x2="249.59" y2="130.46"/><line class="cls-4" x1="230.06" y1="137.14" x2="248.97" y2="65.68"/><line class="cls-4" x1="205.18" y1="128.51" x2="245.82" y2="77.58"/><line class="cls-4" x1="195.99" y1="115.23" x2="250.85" y2="52.89"/><ellipse class="cls-5" cx="116.37" cy="405.89" rx="14.63" ry="20.56" transform="translate(-314.83 283.83) rotate(-87.48)"/><ellipse class="cls-5" cx="215.35" cy="410.24" rx="14.63" ry="20.56" transform="translate(-224.53 386.87) rotate(-87.48)"/><ellipse class="cls-6" cx="116.43" cy="405.26" rx="5.61" ry="5.15" transform="translate(-314.14 283.28) rotate(-87.48)"/><ellipse class="cls-6" cx="215.35" cy="410.24" rx="5.61" ry="5.15" transform="translate(-224.53 386.87) rotate(-87.48)"/><polygon class="cls-7" points="144.92 257.58 156.61 258.1 156.61 258.1 144.92 257.58"/><path class="cls-8" d="M139.7,495a80.94,80.94,0,0,1,8.61.95c10.22-1.42,20.6.3,30.82.78h.05l.91-1.1-20.73-30.19-23.31,28.26,1.68,2.44A2.17,2.17,0,0,1,139.7,495Z" transform="translate(-20.59 -220.51)"/><path class="cls-7" d="M93.5,325.82a35.93,35.93,0,0,1,8.73-.14c9.39-6.29,20.14-5.11,30.25-6.83h.06l.46-2.91-32-66.8-11.6,74.59,2.59,5.4C92.15,327.3,92.6,326,93.5,325.82Z" transform="translate(-20.59 -220.51)"/><path class="cls-7" d="M226.78,333.39a38,38,0,0,1,7.47,4.83c11-.06,19.55,7.07,29,11.35h0l1.78-2.24,4.89-75.4-45.57,57.36-.4,6.1C225,333.89,226,333,226.78,333.39Z" transform="translate(-20.59 -220.51)"/><line class="cls-9" x1="144.27" y1="259.4" x2="242.27" y2="235.16"/><line class="cls-9" x1="241.86" y1="257.56" x2="144.85" y2="259.26"/><line class="cls-9" x1="240.13" y1="273.2" x2="145.78" y2="261.93"/><line class="cls-9" x1="137.18" y1="259.15" x2="73.12" y2="243.49"/><line class="cls-9" x1="71.44" y1="265.67" x2="132.48" y2="258.24"/><line class="cls-9" x1="79.72" y1="280.29" x2="129.7" y2="259.74"/><line class="cls-9" x1="137.75" y1="267.8" x2="134.96" y2="331.39"/><path class="cls-9" d="M155.55,551.89c-.17,4.07-11.49,6.87-25.29,6.27" transform="translate(-20.59 -220.51)"/><path class="cls-9" d="M155.55,551.89c-.28,6.52,9.33,12.22,21.5,12.76" transform="translate(-20.59 -220.51)"/><path class="cls-9" d="M188.17,560.7c-.11,2.44-5.08,4.21-11.12,3.95" transform="translate(-20.59 -220.51)"/><path class="cls-10" d="M167.67,410.34c1.52-3.95,2.42-8,1-12.57a10.93,10.93,0,0,0-9.4-7.88,4.73,4.73,0,0,0-5.38.93c-1.79,1.73-2.57,4.86-3.46,7.2q-1.83,4.69-3.65,9.39c-2.39,6.17-3.72,11.76-2.63,18.44,1,5.91,4.14,13,1.05,18.75a4.47,4.47,0,0,0,1.32,5.86l.27.15c.21,5.75,1.11,11.36,4.94,15.62a3.79,3.79,0,0,0,4.71.85,5.67,5.67,0,0,0,1.51-1.22c1.45,2.9,6.83,2.31,7.56-2.08,2.43-14.68,1.54-29.53,1.77-44.36C167.38,416.41,167.46,413.38,167.67,410.34Zm-8.9,44.8a55.76,55.76,0,0,1,.42-6.33C159.1,450.92,159,453,158.77,455.14Z" transform="translate(-20.59 -220.51)"/><path class="cls-10" d="M58.48,471.71a93,93,0,0,0,3.26-20.61,94.57,94.57,0,0,0-5.49-36,12.33,12.33,0,0,0-3.93-7.72c-3.84-3.15-8.54-1.57-11.5,2.15-3.53,4.44-6.18,10.17-8.73,15.3a86.07,86.07,0,0,0-6.86,17.79A51.52,51.52,0,0,0,24,461.09c.76,6.38,3,12.38,4.29,18.64,2.59,12.61-.64,25.88,3.58,38.22,2.57,7.52,12.74,21.41,18.81,9.38,5.33-10.56,1.18-22.32,2-33.57C53.23,486.11,56.48,479,58.48,471.71Zm-14.41,51-.35-.48a3.54,3.54,0,0,0,.19-.33,3.87,3.87,0,0,0,.43.27Zm-7.15-89.49a10,10,0,0,0,.5,1.17,10.22,10.22,0,0,0-1.07,1l-.24-.33.16-.42C36.46,434.14,36.68,433.67,36.92,433.19ZM40,446.37a8.4,8.4,0,0,1-.05,1.12c0,.86-.17,1.78-.26,2.68a10.8,10.8,0,0,1,.29-3.8Zm8.47-3.8c-.14.47-.27.95-.39,1.42v-.29c.07-1.36.07-2.72,0-4.08a4.8,4.8,0,0,0,.48-.3c-.06,1.08-.1,2.17-.13,3.25Zm-1.73,40.7a62.72,62.72,0,0,0-1.39,6.25c.29-2,.54-4,.73-6a5.81,5.81,0,0,0,.63-.21Zm-2.21,11.84c.19-1.28.37-2.56.56-3.83a2.47,2.47,0,0,1-.08.6,40.72,40.72,0,0,0-.23,4.27c-.11-.37-.19-.71-.27-1Zm2.29-80.18a1.31,1.31,0,0,1,.76-.33c.18.44.35.87.53,1.35a4,4,0,0,0-2-.09l-.16,0a5.22,5.22,0,0,1,.85-1Z" transform="translate(-20.59 -220.51)"/><path class="cls-10" d="M281.83,515.93a17.89,17.89,0,0,0-22.09,3c-3.4,3.61-5.14,8.57-6.41,13.41-1.52,5.86-2.87,11.77-4.34,17.65-.67,2.74-1,5.25-2.75,7.43a16.06,16.06,0,0,0-3.32,5.56c-.74,2.53-.51,5.33-2.53,7.14-1.71,1.55-4.28,2.23-6.31,3.15a51,51,0,0,0-22,19.1c-3,4.51,3.64,9.09,6.58,4.61a44.36,44.36,0,0,1,20.08-16.61c3.41-1.46,6.87-3.08,9.06-6.45a16.5,16.5,0,0,0,2-5.76,12,12,0,0,1,2.92-5.86c2.75-3.51,3.38-8.48,4.44-12.82,1.19-4.84,2.32-9.7,3.57-14.52,1.13-4.34,2.51-9.08,6.32-11.49a10.17,10.17,0,0,1,10.44-.4C282,525.64,286.29,518.48,281.83,515.93Z" transform="translate(-20.59 -220.51)"/><path class="cls-10" d="M145.8,514.79c1.16-4.79-4.77-7.38-6.89-4h-.09c-14.91-.56-28.5,10-35.14,24.19-3.15,6.71-4.68,19.53-12.86,21.24-3.86.81-7.09.44-10.11,3.66-2.2,2.32-3.27,6.27-5.9,8-4.3,2.86-.71,10.44,3.64,7.55,2.61-1.74,4.24-4.1,5.9-6.79.92-1.48,1.65-3,3.3-3.59s3.75-.23,5.48-.66c7.43-1.84,11.52-9.33,14.08-16.49,2.82-7.75,5.61-14.66,11.46-20.34a27.17,27.17,0,0,1,19.11-8.26c.08,1.56.24,3.14.4,4.79.46,4.78-.51,7-4.44,9.21-3,1.66-6,3.16-8.28,5.95-2.58,3.19-4.2,7.19-6.45,10.65-4.69,7.2-10.68,12.71-17.33,17.66-6,4.43-11.66,9.15-14.05,16.88-1.62,5.23,5.85,7.82,7.47,2.59,2.32-7.51,9.72-11.34,15.26-15.72a70.34,70.34,0,0,0,16.71-19.15c2-3.34,3.35-7.16,6.57-9.28,2.8-1.84,6-2.86,8.44-5.31a14.44,14.44,0,0,0,4.12-9.74C146.43,523.5,144.74,519.08,145.8,514.79Z" transform="translate(-20.59 -220.51)"/><ellipse class="cls-1" cx="445.37" cy="457.93" rx="137.47" ry="151.36" transform="translate(-99.58 -127.42) rotate(-10.97)"/><line class="cls-2" x1="302.84" y1="162.03" x2="363.92" y2="116.18"/><line class="cls-3" x1="353.72" y1="105.33" x2="363.92" y2="116.18"/><path class="cls-4" d="M327.63,409.29c3.58-51.87,7.95-104.13,11.79-156.64" transform="translate(-20.59 -220.51)"/><line class="cls-4" x1="379.61" y1="106.72" x2="318.54" y2="35.91"/><line class="cls-4" x1="363.92" y1="116.18" x2="323.92" y2="60.52"/><line class="cls-4" x1="351.17" y1="125.75" x2="321.29" y2="76.7"/><line class="cls-4" x1="338.54" y1="135.24" x2="319.38" y2="93.1"/><line class="cls-4" x1="335.87" y1="151.95" x2="319.64" y2="115.98"/><path class="cls-4" d="M463,315.05C474,292.52,484,269.31,494.79,245.94c3.5-6.88,6.22-13.61,9.7-19.79" transform="translate(-20.59 -220.51)"/><line class="cls-4" x1="512.29" y1="124.3" x2="483.12" y2="7.3"/><line class="cls-4" x1="518.23" y1="141.43" x2="507.57" y2="105.36"/><line class="cls-4" x1="490.04" y1="116.56" x2="491.62" y2="41.36"/><line class="cls-4" x1="463.64" y1="113.87" x2="491.35" y2="53.88"/><line class="cls-4" x1="451.5" y1="102.89" x2="490.43" y2="28.26"/><ellipse class="cls-5" cx="390.61" cy="416.42" rx="20.69" ry="14.89" transform="translate(-92.68 -138.59) rotate(-10.97)"/><ellipse class="cls-5" cx="488.53" cy="397.45" rx="20.69" ry="14.89" transform="translate(-87.28 -120.31) rotate(-10.97)"/><ellipse class="cls-6" cx="390.52" cy="415.78" rx="5.19" ry="5.71" transform="translate(-92.56 -138.62) rotate(-10.97)"/><ellipse class="cls-6" cx="488.53" cy="397.45" rx="5.19" ry="5.71" transform="translate(-87.28 -120.31) rotate(-10.97)"/><polygon class="cls-7" points="435.23 255.84 446.79 253.6 446.79 253.6 435.23 255.84"/><path class="cls-7" d="M434.55,499.11a80,80,0,0,1,8.64-1.08c9.68-3.8,20.24-4.55,30.36-6.47h.05l.63-1.31-27.44-25-16.13,33.47,2.22,2A2.16,2.16,0,0,1,434.55,499.11Z" transform="translate(-20.59 -220.51)"/><path class="cls-7" d="M349.26,342.53a35.34,35.34,0,0,1,8.5-2.2c7.71-8.43,18.51-9.79,28-13.88h.05l-.24-3-47.13-58.62,6.32,76.58,3.81,4.74C348.28,344.3,348.41,342.88,349.26,342.53Z" transform="translate(-20.59 -220.51)"/><path class="cls-7" d="M481.51,318.67a38.5,38.5,0,0,1,8.46,3c10.76-2.64,20.81,2.41,31,4.43h0l1.21-2.63-13.08-75.81-31,67.51,1.05,6.13C479.85,319.6,480.67,318.48,481.51,318.67Z" transform="translate(-20.59 -220.51)"/><line class="cls-9" x1="435.02" y1="257.8" x2="525.21" y2="210.75"/><line class="cls-9" x1="530.11" y1="233.02" x2="435.55" y2="257.52"/><line class="cls-9" x1="532.12" y1="248.92" x2="437.1" y2="259.95"/><line class="cls-11" x1="421.17" y1="260.54" x2="354.75" y2="260.1"/><line class="cls-9" x1="361.36" y1="283.55" x2="419.35" y2="261.84"/><line class="cls-9" x1="376.77" y1="293.67" x2="420.83" y2="261.56"/><line class="cls-9" x1="430.63" y1="267.65" x2="442.96" y2="331.26"/><path class="cls-9" d="M396.15,524.68c4,20.56,34,32,67.11,25.59" transform="translate(-20.59 -220.51)"/><path class="cls-9" d="M517.39,501.19c4,20.55-20.23,42.51-54.13,49.08" transform="translate(-20.59 -220.51)"/><path class="cls-12" d="M454.54,330.92c-3-7.84-6.36-17.79-12.29-23.69-5.08-5.06-14.1-6.29-18.27,0-3.67-.83-8.12-.35-11-.53a3.88,3.88,0,0,0-4,2.81c-2.2,9.44-2.27,19-1.38,28.74.82,8.91,1.42,19.35,4.81,27.69,1.64,4,4.43,6.54,7.27,9.52.63,1.26,1.29,2.51,2,3.75a67.56,67.56,0,0,1,3.93,8.18l.09.48c.4,3.76-.46,7.45,2.73,10.11.08.63.16,1.27.22,1.92.72,7.52.21,15.08.62,22.61.34,6.48.88,14,4.19,19.71,3,5.22,8.66,7.31,13.38,3.92,5.39-3.87,5.22-11.27,6.73-17.48,3.25-13.27,10.83-28.33,4.25-42.34a10.46,10.46,0,0,0-1.28-2.08A71.33,71.33,0,0,0,460.46,360,81.9,81.9,0,0,0,454.54,330.92Zm-5.61,48.42h0a8.69,8.69,0,0,0,.87-.57c-.25.77-.51,1.53-.79,2.27C449,380.45,449,379.89,448.93,379.34Zm3.13-25.93c-.19-1.22-.43-2.42-.74-3.62,0-.21.07-.43.11-.64.25,1.41.47,2.83.63,4.26Z" transform="translate(-20.59 -220.51)"/><path class="cls-12" d="M574.31,417.64a14.21,14.21,0,0,0-1.57-2.16c1.43-2.39-.34-7.14-3.85-6.92-8.39.62-15.63,6.94-18.75,15.72-1.51,4.26-1.21,8.47-1.51,13-.16,2.38-1.23,4.38-1.37,6.74-.18,3.09,1.21,5.73,2.79,8.19,6.46,10,9.78,20.5,9,32.68-.32,4.8-.54,9.57,1.66,14a22.53,22.53,0,0,0,10.71,10c4.33,1.93,6.72-1.22,7.62-5.65a162.19,162.19,0,0,0,2.46-17.12,186.53,186.53,0,0,0-.1-35.44q-.84-9-2.58-17.84C577.79,427.9,576.93,422.1,574.31,417.64Z" transform="translate(-20.59 -220.51)"/><path class="cls-12" d="M333.73,436c.11-6.23,1.62-12.43-2.06-18a10.44,10.44,0,0,0-6.05-4.54c-1.33-.36-6.75.47-7.39-.74a4,4,0,1,0-7,3.72c2.4,4.66,6.18,5.2,10.59,5.3,6.69.14,4.09,8.63,4,13.48-.12,6.17,2,11.71,4,17.45a66.49,66.49,0,0,1,.37,42.54c-.35,1-2,5.42-2,5.42-1.43,0-4.27-4.95-5.28-6-2.41-2.58-5.25-4.21-8.6-3.48-5,1.08-3.33,9.63,1.65,8.55,1.64-.37,4.69,5.05,5.9,6.3,2.87,2.94,6.67,4.38,10.19,2.16,4.07-2.56,5.67-9.31,6.88-13.93a76.61,76.61,0,0,0,.23-37.91C337.4,449.62,333.61,442.94,333.73,436Z" transform="translate(-20.59 -220.51)"/></svg>