<svg id="Layer_1" data-name="Layer 1" xmlns="http://www.w3.org/2000/svg" viewBox="0 0 273.37 75.98"><defs><style>.cls-1{fill:#fecd95;}.cls-1,.cls-2{stroke:#fcb856;}.cls-1,.cls-2,.cls-3,.cls-4,.cls-5,.cls-6,.cls-7{stroke-miterlimit:10;}.cls-2{fill:#f6891f;}.cls-3{fill:#b8ddb3;}.cls-3,.cls-6,.cls-7{stroke:#28b34b;}.cls-4{fill:#0c6a37;stroke:#5bba47;}.cls-5,.cls-6{fill:none;}.cls-5{stroke:#b8ddb3;}.cls-7{fill:#006838;}</style></defs><rect class="cls-1" x="0.5" y="19.87" width="272.37" height="42.11"/><rect class="cls-2" x="0.5" y="16.08" width="13.16" height="52.47"/><rect class="cls-2" x="259.71" y="13.25" width="13.16" height="55.3"/><circle class="cls-2" cx="58.39" cy="40.92" r="21.05"/><circle class="cls-2" cx="157.74" cy="40.92" r="21.05"/><circle class="cls-2" cx="228.13" cy="40.92" r="21.05"/><circle class="cls-2" cx="108.56" cy="40.92" r="21.05"/><ellipse class="cls-3" cx="63.3" cy="50.37" rx="1.23" ry="2.72"/><ellipse class="cls-3" cx="55.46" cy="47.17" rx="0.74" ry="3.2"/><ellipse class="cls-3" cx="62.51" cy="43.31" rx="1.49" ry="3.2"/><ellipse class="cls-3" cx="71.8" cy="48.04" rx="1.49" ry="3.2"/><ellipse class="cls-3" cx="57.69" cy="58.91" rx="1.49" ry="3.2"/><ellipse class="cls-3" cx="47.79" cy="52.07" rx="1.49" ry="3.2"/><ellipse class="cls-3" cx="56.95" cy="34.55" rx="1.49" ry="3.2"/><ellipse class="cls-3" cx="74.78" cy="40.92" rx="1.49" ry="3.2"/><ellipse class="cls-3" cx="49.28" cy="34.55" rx="1.49" ry="3.2"/><ellipse class="cls-3" cx="58.39" cy="48.88" rx="1.49" ry="3.2"/><ellipse class="cls-3" cx="58.13" cy="42.15" rx="1.49" ry="3.2"/><ellipse class="cls-3" cx="65.49" cy="43.31" rx="1.49" ry="3.2"/><ellipse class="cls-3" cx="54.71" cy="42.17" rx="1.49" ry="3.2"/><ellipse class="cls-3" cx="47.79" cy="43.31" rx="1.49" ry="3.2"/><ellipse class="cls-3" cx="62.07" cy="35.77" rx="1.49" ry="3.2"/><ellipse class="cls-3" cx="67.95" cy="37.31" rx="1.49" ry="3.2"/><ellipse class="cls-3" cx="67.95" cy="32.22" rx="1.49" ry="3.2"/><ellipse class="cls-3" cx="64.53" cy="57.42" rx="1.49" ry="3.2"/><ellipse class="cls-3" cx="45.22" cy="32.22" rx="1.49" ry="3.2"/><ellipse class="cls-3" cx="43.73" cy="36.91" rx="1.49" ry="3.2"/><ellipse class="cls-3" cx="43.73" cy="43.66" rx="1.49" ry="3.2"/><ellipse class="cls-3" cx="49.28" cy="53.08" rx="1.49" ry="3.2"/><ellipse class="cls-3" cx="50.77" cy="35.77" rx="1.49" ry="3.2"/><ellipse class="cls-3" cx="55.68" cy="40.11" rx="1.49" ry="3.2"/><ellipse class="cls-3" cx="52.26" cy="29.03" rx="1.49" ry="3.2"/><ellipse class="cls-3" cx="65.49" cy="38.95" rx="1.49" ry="3.2"/><ellipse class="cls-3" cx="69.44" cy="42.17" rx="1.49" ry="3.2"/><ellipse class="cls-3" cx="67.95" cy="54.22" rx="1.49" ry="3.2"/><ellipse class="cls-3" cx="60.67" cy="32.22" rx="1.49" ry="3.2"/><ellipse class="cls-3" cx="64" cy="32.22" rx="1.49" ry="3.2"/><ellipse class="cls-3" cx="53.75" cy="34.11" rx="1.49" ry="3.2"/><ellipse class="cls-3" cx="55.72" cy="27.14" rx="1.49" ry="3.2"/><ellipse class="cls-3" cx="62.07" cy="27.14" rx="1.49" ry="3.2"/><ellipse class="cls-3" cx="59.18" cy="32.22" rx="1.49" ry="3.2"/><ellipse class="cls-3" cx="60.58" cy="45.68" rx="1.49" ry="3.2"/><ellipse class="cls-3" cx="60.58" cy="50.37" rx="1.49" ry="3.2"/><ellipse class="cls-3" cx="67.95" cy="48.88" rx="1.49" ry="3.2"/><ellipse class="cls-3" cx="71.8" cy="34.11" rx="1.49" ry="3.2"/><ellipse class="cls-3" cx="64.97" cy="54.22" rx="1.49" ry="3.2"/><ellipse class="cls-3" cx="64" cy="48.04" rx="1.49" ry="3.2"/><ellipse class="cls-3" cx="57.17" cy="45.68" rx="1.49" ry="3.2"/><ellipse class="cls-3" cx="64" cy="40.11" rx="1.49" ry="3.2"/><ellipse class="cls-3" cx="59.88" cy="38.95" rx="1.49" ry="3.2"/><ellipse class="cls-3" cx="56.64" cy="38.95" rx="1.49" ry="3.2"/><ellipse class="cls-3" cx="46.3" cy="38.95" rx="1.49" ry="3.2"/><ellipse class="cls-3" cx="40.54" cy="40.46" rx="1.49" ry="3.2"/><ellipse class="cls-3" cx="37.34" cy="42.15" rx="1.49" ry="3.2"/><ellipse class="cls-3" cx="43.73" cy="48.88" rx="1.49" ry="3.2"/><ellipse class="cls-3" cx="52.26" cy="40.11" rx="1.49" ry="3.2"/><ellipse class="cls-3" cx="53.22" cy="47.65" rx="1.49" ry="3.2"/><ellipse class="cls-3" cx="49.98" cy="40.92" rx="1.49" ry="3.2"/><ellipse class="cls-3" cx="49.98" cy="46.86" rx="1.49" ry="3.2"/><ellipse class="cls-3" cx="48.49" cy="29.93" rx="3.57" ry="1.37"/><ellipse class="cls-3" cx="74.78" cy="49.88" rx="3.57" ry="1.37"/><ellipse class="cls-3" cx="53.75" cy="57.42" rx="3.57" ry="1.37"/><ellipse class="cls-3" cx="59.46" cy="57.42" rx="3.57" ry="1.37"/><ellipse class="cls-3" cx="59.88" cy="54.22" rx="3.57" ry="1.37"/><ellipse class="cls-3" cx="55.24" cy="54.22" rx="3.57" ry="1.37"/><ellipse class="cls-3" cx="73.29" cy="29.93" rx="3.57" ry="1.37"/><ellipse class="cls-3" cx="66.02" cy="27.33" rx="3.57" ry="1.37"/><ellipse class="cls-3" cx="71.8" cy="37.75" rx="3.57" ry="1.37"/><ellipse class="cls-3" cx="71.8" cy="43.97" rx="3.57" ry="1.37"/><ellipse class="cls-3" cx="61.02" cy="22.57" rx="3.57" ry="1.37"/><ellipse class="cls-3" cx="58.13" cy="23.94" rx="3.57" ry="1.37"/><ellipse class="cls-3" cx="59.09" cy="27.14" rx="3.57" ry="1.37"/><ellipse class="cls-3" cx="70.93" cy="25.96" rx="3.57" ry="1.37"/><ellipse class="cls-3" cx="66.46" cy="23.94" rx="3.57" ry="1.37"/><ellipse class="cls-3" cx="76.86" cy="33.71" rx="3.57" ry="1.37"/><ellipse class="cls-3" cx="76.27" cy="36.91" rx="3.57" ry="1.37"/><ellipse class="cls-3" cx="50.77" cy="44.12" rx="3.57" ry="1.37"/><ellipse class="cls-3" cx="46.3" cy="27.33" rx="3.57" ry="1.37"/><ellipse class="cls-3" cx="43.73" cy="30.91" rx="3.57" ry="1.37"/><ellipse class="cls-3" cx="76.27" cy="43.97" rx="3.57" ry="1.37"/><ellipse class="cls-3" cx="76.27" cy="40.08" rx="3.57" ry="1.37"/><ellipse class="cls-3" cx="74.96" cy="41.45" rx="3.57" ry="1.37"/><ellipse class="cls-3" cx="76.27" cy="46.86" rx="3.57" ry="1.37"/><ellipse class="cls-3" cx="54.71" cy="21.2" rx="3.57" ry="1.37"/><ellipse class="cls-3" cx="51.47" cy="22.57" rx="3.57" ry="1.37"/><ellipse class="cls-3" cx="49.98" cy="25.31" rx="3.57" ry="1.37"/><ellipse class="cls-3" cx="71.8" cy="52.61" rx="3.57" ry="1.37"/><ellipse class="cls-3" cx="47.31" cy="58.79" rx="3.57" ry="1.37"/><ellipse class="cls-3" cx="44.92" cy="54.22" rx="3.57" ry="1.37"/><ellipse class="cls-3" cx="40.54" cy="34.77" rx="3.57" ry="1.37"/><ellipse class="cls-3" cx="42.03" cy="46.86" rx="3.57" ry="1.37"/><ellipse class="cls-3" cx="54.19" cy="51.02" rx="3.57" ry="1.37"/><ellipse class="cls-3" cx="69.44" cy="54.22" rx="3.57" ry="1.37"/><ellipse class="cls-3" cx="155.41" cy="378.47" rx="1.79" ry="3.64" transform="translate(-365.26 101.81) rotate(-75)"/><ellipse class="cls-3" cx="162.06" cy="384.87" rx="1.79" ry="3.64" transform="translate(-366.5 112.98) rotate(-75)"/><ellipse class="cls-3" cx="167.13" cy="388.97" rx="1.79" ry="3.64" transform="translate(-366.72 120.92) rotate(-75)"/><ellipse class="cls-3" cx="174.75" cy="389.43" rx="1.79" ry="3.64" transform="translate(-361.51 128.63) rotate(-75)"/><ellipse class="cls-3" cx="187.57" cy="368.15" rx="1.79" ry="3.64" transform="translate(-331.46 125.23) rotate(-75)"/><path class="cls-3" d="M154.62,373.26c1.94.52,3.72.17,4-.78s-2,1.3-4,.78-2.8-3.62-3.06-2.67S152.68,372.74,154.62,373.26Z" transform="translate(-114.87 -328.81)"/><path class="cls-3" d="M161.61,376c1.94.52,3.72.17,4-.78s-2.45.65-4.4.13-2.38-3-2.64-2S159.66,375.52,161.61,376Z" transform="translate(-114.87 -328.81)"/><ellipse class="cls-3" cx="182.81" cy="364.24" rx="1.79" ry="3.64" transform="translate(-331.2 117.74) rotate(-75)"/><ellipse class="cls-3" cx="184.06" cy="386.15" rx="1.79" ry="3.64" transform="translate(-351.43 135.18) rotate(-75)"/><ellipse class="cls-3" cx="155.41" cy="361.39" rx="1.79" ry="3.64" transform="translate(-348.76 89.15) rotate(-75)"/><ellipse class="cls-3" cx="161.6" cy="374.66" rx="1.79" ry="3.64" transform="translate(-356.99 104.97) rotate(-75)"/><ellipse class="cls-3" cx="169.1" cy="392.08" rx="1.79" ry="3.64" transform="translate(-368.26 125.12) rotate(-75)"/><ellipse class="cls-3" cx="182.81" cy="389.43" rx="1.79" ry="3.64" transform="translate(-355.53 136.41) rotate(-75)"/><ellipse class="cls-3" cx="178.87" cy="348.96" rx="1.79" ry="3.64" transform="translate(-319.36 102.6) rotate(-75)"/><ellipse class="cls-3" cx="195.31" cy="381.9" rx="1.79" ry="3.64" transform="translate(-339 142.89) rotate(-75)"/><ellipse class="cls-3" cx="191.14" cy="384.09" rx="1.79" ry="3.64" transform="translate(-344.2 140.49) rotate(-75)"/><ellipse class="cls-3" cx="189.1" cy="380.55" rx="1.79" ry="3.64" transform="translate(-342.29 135.9) rotate(-75)"/><ellipse class="cls-3" cx="190.24" cy="357.32" rx="1.79" ry="3.64" transform="translate(-319.01 119.79) rotate(-75)"/><ellipse class="cls-3" cx="197.8" cy="385.87" rx="1.79" ry="3.64" transform="translate(-340.99 148.25) rotate(-75)"/><ellipse class="cls-3" cx="194.32" cy="378.14" rx="1.79" ry="3.64" transform="translate(-336.1 139.15) rotate(-75)"/><ellipse class="cls-3" cx="198.95" cy="380.2" rx="1.79" ry="3.64" transform="translate(-334.65 145.16) rotate(-75)"/><ellipse class="cls-3" cx="197.8" cy="377.33" rx="1.79" ry="3.64" transform="translate(-332.73 141.91) rotate(-75)"/><ellipse class="cls-3" cx="174.33" cy="367.1" rx="1.79" ry="3.64" transform="translate(-340.24 111.66) rotate(-75)"/><ellipse class="cls-3" cx="152.21" cy="354.13" rx="1.79" ry="3.64" transform="translate(-344.11 80.68) rotate(-75)"/><ellipse class="cls-3" cx="153.32" cy="380.06" rx="1.79" ry="3.64" transform="translate(-368.34 100.97) rotate(-75)"/><ellipse class="cls-3" cx="155.41" cy="356.89" rx="1.79" ry="3.64" transform="translate(-344.42 85.82) rotate(-75)"/><rect class="cls-4" x="106.93" y="45.9" width="3.11" height="23.25"/><rect class="cls-4" x="106.93" y="0.5" width="3.84" height="35.88"/><rect class="cls-4" x="105.14" y="36.58" width="35.86" height="4.26"/><rect class="cls-4" x="111.49" y="42.15" width="26.86" height="2.69"/><rect class="cls-4" x="77.26" y="37.26" width="29.58" height="3.43"/><rect class="cls-4" x="103.22" y="4.67" width="3.11" height="33.33"/><rect class="cls-4" x="209.13" y="364.09" width="3.92" height="33.59" transform="translate(103.86 -383.33) rotate(30)"/><rect class="cls-4" x="228.46" y="363.94" width="4.76" height="38.58" transform="translate(507.49 270.88) rotate(150)"/><rect class="cls-4" x="213.12" y="333.4" width="3.84" height="33.49" transform="translate(-177.72 -281.36) rotate(-11)"/><rect class="cls-4" x="234.13" y="333.99" width="3.84" height="36.49" transform="translate(203.33 -392.56) rotate(45)"/><rect class="cls-4" x="105.01" y="39.31" width="3.84" height="33.5"/><rect class="cls-4" x="205.2" y="349.49" width="3.43" height="28.16" transform="translate(-312.69 140.52) rotate(-75)"/><rect class="cls-4" x="101.31" y="39.62" width="3.84" height="21.49"/><rect class="cls-4" x="235.89" y="341.53" width="4.09" height="37.26" transform="translate(378.19 -316.86) rotate(69.68)"/><rect class="cls-4" x="204.19" y="335.29" width="4.03" height="32.22" transform="translate(-290.51 -119.52) rotate(-39.18)"/><rect class="cls-4" x="228.93" y="331.44" width="3.81" height="35.05" transform="translate(127.81 -398.09) rotate(35.11)"/><rect class="cls-4" x="201.29" y="358" width="4.02" height="34.64" transform="translate(369.8 -274.48) rotate(69.68)"/><rect class="cls-4" x="234.98" y="360.64" width="5.92" height="39.82" transform="translate(566.19 122.99) rotate(131.15)"/><path class="cls-5" d="M277.36,361.39c0-10.6-5-19.18-11.09-19.18" transform="translate(-114.87 -328.81)"/><path class="cls-5" d="M268.93,361.39c0-11.21,6.25-20.29,14-20.29" transform="translate(-114.87 -328.81)"/><path class="cls-5" d="M272.61,364.59c0,10.3,11.64,18.64,26,18.64" transform="translate(-114.87 -328.81)"/><path class="cls-5" d="M277.36,367.93c0-10.49,10.41-19,23.28-19" transform="translate(-114.87 -328.81)"/><path class="cls-5" d="M272.61,364.59c0,14.83-7.93,26.83-17.73,26.83" transform="translate(-114.87 -328.81)"/><path class="cls-5" d="M269.82,370.26c0-15.5-6.24-28.05-13.95-28.05" transform="translate(-114.87 -328.81)"/><path class="cls-5" d="M266.27,369.5c0,6.11-11.08,11.05-24.78,11.05" transform="translate(-114.87 -328.81)"/><path class="cls-5" d="M259.62,363.57c0-6.73-8.87-12.17-19.83-12.17" transform="translate(-114.87 -328.81)"/><path class="cls-5" d="M269.76,367.76H255.87" transform="translate(-114.87 -328.81)"/><path class="cls-5" d="M263.74,359.72c0-6-5.45-10.76-12.19-10.76" transform="translate(-114.87 -328.81)"/><path class="cls-5" d="M263.74,359.72c0,5.54-8.61,10-19.26,10" transform="translate(-114.87 -328.81)"/><path class="cls-5" d="M269.76,367.76a20.59,20.59,0,0,1,20.68-20.51" transform="translate(-114.87 -328.81)"/><path class="cls-5" d="M280.1,369.74c0,4.39,9.18,7.95,20.54,7.95" transform="translate(-114.87 -328.81)"/><path class="cls-5" d="M280.1,366.12c0,.78,6.51,1.4,14.55,1.4" transform="translate(-114.87 -328.81)"/><path class="cls-5" d="M280.1,362.92c0-.85,7.84-1.53,17.54-1.53" transform="translate(-114.87 -328.81)"/><path class="cls-5" d="M278.24,356.24c0-3.44,7.34-6.22,16.41-6.22" transform="translate(-114.87 -328.81)"/><path class="cls-5" d="M284.45,358.44c0,.17,6.35.31,14.19.31" transform="translate(-114.87 -328.81)"/><path class="cls-5" d="M277.06,375c0,11.15,5.28,20.17,11.81,20.17" transform="translate(-114.87 -328.81)"/><path class="cls-5" d="M271.81,380.07c0,9.89,1.39,17.9,3.11,17.9" transform="translate(-114.87 -328.81)"/><path class="cls-5" d="M266.27,377.69c0,11.76-1.13,21.28-2.53,21.28" transform="translate(-114.87 -328.81)"/><path class="cls-5" d="M263.74,369.5c0,10-7.69,18.1-17.2,18.1" transform="translate(-114.87 -328.81)"/><path class="cls-5" d="M274.82,372.12A23.2,23.2,0,0,0,251.55,349" transform="translate(-114.87 -328.81)"/><path class="cls-5" d="M274.14,366.54c0,3.93-16.19,7.12-36.2,7.12" transform="translate(-114.87 -328.81)"/><path class="cls-5" d="M277.36,364.73c0,5,13.38,9,29.93,9" transform="translate(-114.87 -328.81)"/><path class="cls-5" d="M274.14,366.54c0-15.29.35-27.65.78-27.65" transform="translate(-114.87 -328.81)"/><path class="cls-5" d="M266.27,366.82c0-12.13-3-21.95-6.65-21.95" transform="translate(-114.87 -328.81)"/><path class="cls-5" d="M268.93,374.31c0-18.36-3.57-33.21-8-33.21" transform="translate(-114.87 -328.81)"/><path class="cls-5" d="M277.36,367.93c0-3,7.29-5.4,16.3-5.4" transform="translate(-114.87 -328.81)"/><path class="cls-5" d="M280.1,369.74c0,11.16,2.42,20.19,5.41,20.19" transform="translate(-114.87 -328.81)"/><path class="cls-5" d="M265,375c0,14.7,5.92,26.6,13.23,26.6" transform="translate(-114.87 -328.81)"/><path class="cls-5" d="M271.62,373.4c0,9.14,6.21,16.53,13.89,16.53" transform="translate(-114.87 -328.81)"/><path class="cls-5" d="M277.36,370.26c0,9.65,10.41,17.47,23.28,17.47" transform="translate(-114.87 -328.81)"/><path class="cls-5" d="M277.36,370.26c0,18.08,11.1,32.7,24.83,32.7" transform="translate(-114.87 -328.81)"/><path class="cls-5" d="M281.79,376c0,2.13,7.54,3.86,16.85,3.86" transform="translate(-114.87 -328.81)"/><path class="cls-5" d="M274.14,370.91c0-4.63,8.73-8.38,19.52-8.38" transform="translate(-114.87 -328.81)"/><path class="cls-5" d="M268.93,361.39c0-.19,10.22-.35,22.85-.35" transform="translate(-114.87 -328.81)"/><path class="cls-5" d="M272.61,364.59c0,11.76,2.12,21.28,4.75,21.28" transform="translate(-114.87 -328.81)"/><path class="cls-5" d="M274.82,372.12c0,7.6,1.14,13.75,2.54,13.75" transform="translate(-114.87 -328.81)"/><path class="cls-5" d="M263.74,369.5c0,8.63,2.32,15.61,5.19,15.61" transform="translate(-114.87 -328.81)"/><path class="cls-5" d="M268.93,374.31c0,8.63.4,15.62.89,15.62" transform="translate(-114.87 -328.81)"/><path class="cls-5" d="M261,368.15c0,12.51,2.38,22.64,5.32,22.64" transform="translate(-114.87 -328.81)"/><path class="cls-5" d="M265,375c0,10.45,1.75,18.9,3.92,18.9" transform="translate(-114.87 -328.81)"/><path class="cls-5" d="M265,375c0,14.7-.57,26.6-1.27,26.6" transform="translate(-114.87 -328.81)"/><path class="cls-5" d="M261.82,380.55c0,7.4-1,13.38-2.2,13.38" transform="translate(-114.87 -328.81)"/><path class="cls-5" d="M259.62,363.57c0,7.8-4.44,14.12-9.91,14.12" transform="translate(-114.87 -328.81)"/><path class="cls-5" d="M267,374.72c0,3.22-11.4,5.83-25.48,5.83" transform="translate(-114.87 -328.81)"/><path class="cls-5" d="M260.72,361.21c0-2.15-7.26-3.89-16.24-3.89" transform="translate(-114.87 -328.81)"/><path class="cls-5" d="M266.27,366.82c0-7.8-7.83-14.11-17.52-14.11" transform="translate(-114.87 -328.81)"/><path class="cls-5" d="M266.27,366.82c0-15.44,3.87-27.93,8.65-27.93" transform="translate(-114.87 -328.81)"/><path class="cls-5" d="M280.1,366.12c0-15.91-9.16-28.79-20.48-28.79" transform="translate(-114.87 -328.81)"/><path class="cls-5" d="M273.36,361c0-4.53,7.34-8.19,16.41-8.19" transform="translate(-114.87 -328.81)"/><path class="cls-5" d="M281.57,372.12c0-1.32,11.5-2.38,25.72-2.38" transform="translate(-114.87 -328.81)"/><path class="cls-5" d="M280.1,369.74c0-6.08,8.29-11,18.54-11" transform="translate(-114.87 -328.81)"/><path class="cls-5" d="M281.79,376c0,.27,11.4.48,25.5.48" transform="translate(-114.87 -328.81)"/><path class="cls-5" d="M285.62,365.23c0-9,6.72-16.27,15-16.27" transform="translate(-114.87 -328.81)"/><path class="cls-5" d="M267,371.63c0-1.05,18-1.89,40.32-1.89" transform="translate(-114.87 -328.81)"/><path class="cls-5" d="M277.06,377.91c0-15.42-18.34-27.89-41-27.89" transform="translate(-114.87 -328.81)"/><path class="cls-6" d="M271.16,375.23c0,5.46-10.51,9.88-23.5,9.88" transform="translate(-114.87 -328.81)"/><path class="cls-6" d="M272.61,364.59c0-14.21,3.35-25.7,7.49-25.7" transform="translate(-114.87 -328.81)"/><path class="cls-6" d="M280.1,362.92c0-5.91,11.56-10.69,25.86-10.69" transform="translate(-114.87 -328.81)"/><path class="cls-6" d="M272.61,364.59c0,21.94,11.19,39.7,25,39.7" transform="translate(-114.87 -328.81)"/><path class="cls-6" d="M279.24,382.8c0-21.2-14.63-38.35-32.7-38.35" transform="translate(-114.87 -328.81)"/><path class="cls-6" d="M259.62,370.91c0,13.8-3.86,25-8.64,25" transform="translate(-114.87 -328.81)"/><path class="cls-6" d="M274.82,372.12c0-8.07-9.26-14.61-20.71-14.61" transform="translate(-114.87 -328.81)"/><path class="cls-6" d="M268.93,374.31c0-.33-14.71-.6-32.88-.6" transform="translate(-114.87 -328.81)"/><path class="cls-6" d="M264.37,366.12c0-3.32-12.67-6-28.32-6" transform="translate(-114.87 -328.81)"/><path class="cls-6" d="M264.37,366.12c0-13.21.85-23.91,1.9-23.91" transform="translate(-114.87 -328.81)"/><path class="cls-6" d="M274.14,370.91c0-2.67,11.85-4.84,26.5-4.84" transform="translate(-114.87 -328.81)"/><path class="cls-6" d="M266.27,366.82c0,12.27,14.48,22.2,32.37,22.2" transform="translate(-114.87 -328.81)"/><path class="cls-6" d="M277.36,370.26c0,3.75,7.05,6.78,15.77,6.78" transform="translate(-114.87 -328.81)"/><path class="cls-6" d="M280.1,362.92c0-11.44,2.25-20.71,5-20.71" transform="translate(-114.87 -328.81)"/><path class="cls-6" d="M280.1,369.74c0,2,8.65,3.66,19.34,3.66" transform="translate(-114.87 -328.81)"/><path class="cls-6" d="M273.58,369.65c0,.05,15.08.09,33.71.09" transform="translate(-114.87 -328.81)"/><path class="cls-6" d="M277.36,367.93c0,12.16,3.64,22,8.15,22" transform="translate(-114.87 -328.81)"/><path class="cls-6" d="M275,375.23c0,10.34-1.71,18.7-3.82,18.7" transform="translate(-114.87 -328.81)"/><path class="cls-6" d="M262.55,375.32c0,11.36-4.17,20.56-9.32,20.56" transform="translate(-114.87 -328.81)"/><path class="cls-6" d="M269.37,372.31c0-5.19-9.22-9.39-20.62-9.39" transform="translate(-114.87 -328.81)"/><path class="cls-6" d="M277.36,367.93c0-10.49-7.94-19-17.74-19" transform="translate(-114.87 -328.81)"/><path class="cls-6" d="M277.36,367.93c0,5,7.05,9.11,15.77,9.11" transform="translate(-114.87 -328.81)"/><path class="cls-6" d="M263.74,359.72c0,5.54,13.38,10,29.92,10" transform="translate(-114.87 -328.81)"/><path class="cls-6" d="M259.62,363.57c0,18.54,4.16,33.53,9.31,33.53" transform="translate(-114.87 -328.81)"/><path class="cls-3" d="M269.71,365.73c0,21.31.94,38.56,2.1,38.56" transform="translate(-114.87 -328.81)"/><path class="cls-6" d="M271.62,373.4c0,13.1,7.05,23.7,15.77,23.7" transform="translate(-114.87 -328.81)"/><path class="cls-6" d="M277.06,377.91c0-5.74,8.63-10.39,19.29-10.39" transform="translate(-114.87 -328.81)"/><path class="cls-6" d="M269.76,367.76c0-9.8,11.13-17.74,24.89-17.74" transform="translate(-114.87 -328.81)"/><path class="cls-6" d="M269.76,367.76c0,1.59,12.47,2.87,27.88,2.87" transform="translate(-114.87 -328.81)"/><path class="cls-6" d="M272.61,364.59c0-3.91,12.53-7.08,28-7.08" transform="translate(-114.87 -328.81)"/><path class="cls-6" d="M277.36,367.93c0-10.49,6.69-19,15-19" transform="translate(-114.87 -328.81)"/><path class="cls-7" d="M265,363.57c0-14.5-2.41-26.24-5.39-26.24" transform="translate(-114.87 -328.81)"/><path class="cls-6" d="M268.93,374.31c0-18.36,3.32-33.21,7.42-33.21" transform="translate(-114.87 -328.81)"/><path class="cls-6" d="M271.81,380.07c0-4.19,13.59-7.58,30.38-7.58" transform="translate(-114.87 -328.81)"/><path class="cls-7" d="M277.36,367.93c0,16.13,3.47,29.17,7.76,29.17" transform="translate(-114.87 -328.81)"/><path class="cls-6" d="M269.71,365.73c0,18.86-5.89,34.13-13.16,34.13" transform="translate(-114.87 -328.81)"/><path class="cls-6" d="M267,371.63c0-10.07,4.51-18.23,10.09-18.23" transform="translate(-114.87 -328.81)"/><path class="cls-6" d="M275,375.23c0-16.21,5.55-29.33,12.41-29.33" transform="translate(-114.87 -328.81)"/><path class="cls-6" d="M285.62,365.23c0,1.6,8.49,2.9,19,2.9" transform="translate(-114.87 -328.81)"/><path class="cls-6" d="M259.65,366.12c0,9.06-4.22,16.4-9.44,16.4" transform="translate(-114.87 -328.81)"/><path class="cls-6" d="M272.61,364.59c0,19-1.23,34.38-2.75,34.38" transform="translate(-114.87 -328.81)"/><path class="cls-7" d="M264.37,366.12c0-11.38-4.53-20.59-10.14-20.59" transform="translate(-114.87 -328.81)"/><path class="cls-6" d="M269.82,370.26c0-13.47,5.65-24.36,12.64-24.36" transform="translate(-114.87 -328.81)"/><path class="cls-7" d="M274.14,366.54c0-5.91,5.14-10.69,11.48-10.69" transform="translate(-114.87 -328.81)"/><path class="cls-6" d="M259.62,370.91c0-10.06,15.22-18.2,34-18.2" transform="translate(-114.87 -328.81)"/><path class="cls-6" d="M265.35,372.49c0,16.1-.72,29.14-1.61,29.14" transform="translate(-114.87 -328.81)"/><path class="cls-6" d="M288.19,372.72c0-.13,6.26-.23,14-.23" transform="translate(-114.87 -328.81)"/><path class="cls-6" d="M280.1,369.74c0-4.62,7.84-8.35,17.54-8.35" transform="translate(-114.87 -328.81)"/><path class="cls-6" d="M273.36,361c0-13.87,1.15-25.09,2.55-25.09" transform="translate(-114.87 -328.81)"/><path class="cls-6" d="M268.49,338.89c0,16.17-3.37,29.26-7.54,29.26" transform="translate(-114.87 -328.81)"/><path class="cls-6" d="M265,375c0,8-3.19,14.4-7.12,14.4" transform="translate(-114.87 -328.81)"/><path class="cls-6" d="M259.62,370.91c0,7.85-5.35,14.2-12,14.2" transform="translate(-114.87 -328.81)"/><path class="cls-6" d="M277.36,367.93c0,6.77,8.49,12.24,19,12.24" transform="translate(-114.87 -328.81)"/><path class="cls-6" d="M280.1,362.92c0-.85,8.65-1.53,19.34-1.53" transform="translate(-114.87 -328.81)"/><path class="cls-6" d="M266.27,366.82c0-6.08-7.83-11-17.52-11" transform="translate(-114.87 -328.81)"/><path class="cls-6" d="M263.74,369.5c0-4.06-11.54-7.34-25.8-7.34" transform="translate(-114.87 -328.81)"/><path class="cls-7" d="M259.62,370.91c0,7.79-3.86,14.1-8.64,14.1" transform="translate(-114.87 -328.81)"/><polygon class="cls-7" points="223.04 34.2 218.13 34.2 215.67 36.41 218.13 38.63 223.04 38.63 225.5 36.41 223.04 34.2"/><polygon class="cls-7" points="214.12 34.36 208.54 34.36 205.75 36.58 208.54 38.8 214.12 38.8 216.91 36.58 214.12 34.36"/><polygon class="cls-7" points="203.96 35.93 199.21 37.2 197.41 39.98 200.36 41.49 205.11 40.22 206.91 37.44 203.96 35.93"/><polygon class="cls-7" points="224.31 41.2 220.19 43.88 216.92 43.37 217.78 40.18 221.9 37.49 225.16 38.01 224.31 41.2"/><polygon class="cls-7" points="216.24 39.93 211.32 39.93 208.86 42.15 211.32 44.37 216.24 44.37 218.69 42.15 216.24 39.93"/><polygon class="cls-7" points="218.93 46.93 214.81 49.61 211.55 49.1 212.4 45.91 216.52 43.22 219.79 43.73 218.93 46.93"/><polygon class="cls-7" points="213.14 50.7 209.02 53.38 205.75 52.87 206.61 49.67 210.73 46.99 214 47.5 213.14 50.7"/><polygon class="cls-7" points="210.34 44.3 206.22 46.98 202.96 46.47 203.81 43.28 207.93 40.59 211.2 41.11 210.34 44.3"/><polygon class="cls-7" points="227.19 41.69 226.56 45.32 224.07 46.76 222.21 44.56 222.84 40.93 225.33 39.49 227.19 41.69"/><polygon class="cls-7" points="225.6 48.16 221.48 50.84 218.22 50.33 219.07 47.14 223.19 44.46 226.46 44.97 225.6 48.16"/><polygon class="cls-7" points="221.31 51.64 220.35 55.2 217.74 56.41 216.08 54.06 217.04 50.5 219.65 49.29 221.31 51.64"/><polygon class="cls-7" points="218.49 57.76 214.37 60.44 211.11 59.93 211.96 56.74 216.08 54.06 219.35 54.57 218.49 57.76"/><polygon class="cls-7" points="233.34 35.32 229.22 38 225.95 37.49 226.81 34.3 230.93 31.62 234.19 32.13 233.34 35.32"/><polygon class="cls-7" points="246.72 44.88 242.6 47.56 239.33 47.05 240.19 43.86 244.31 41.18 247.57 41.69 246.72 44.88"/><polygon class="cls-7" points="237.46 56.14 233.34 58.82 230.07 58.31 230.93 55.12 235.05 52.43 238.32 52.95 237.46 56.14"/><polygon class="cls-7" points="223.85 20.19 219.73 22.87 216.46 22.36 217.32 19.17 221.44 16.49 224.71 17 223.85 20.19"/><polygon class="cls-7" points="246.72 24.82 242.6 27.51 239.33 27 240.19 23.8 244.31 21.12 247.57 21.63 246.72 24.82"/><polygon class="cls-7" points="252.45 34.23 248.33 36.91 245.06 36.4 245.92 33.2 250.04 30.52 253.31 31.03 252.45 34.23"/><polygon class="cls-7" points="232.13 49.18 228.01 51.86 224.75 51.35 225.6 48.16 229.72 45.48 232.99 45.99 232.13 49.18"/><polygon class="cls-7" points="229.05 45.74 229.12 50.66 226.94 53.15 224.7 50.72 224.63 45.8 226.81 43.31 229.05 45.74"/><polygon class="cls-7" points="241.1 27.09 237.42 32.65 233.67 33.83 233.61 29.46 237.29 23.91 241.04 22.73 241.1 27.09"/><polygon class="cls-7" points="226.94 37.81 229.98 38.85 232.79 42.85 232.57 45.82 229.53 44.78 226.71 40.78 226.94 37.81"/><polygon class="cls-7" points="231.41 44.82 234.45 45.85 237.27 49.85 237.04 52.82 234 51.79 231.19 47.79 231.41 44.82"/><polygon class="cls-7" points="219.63 28.47 223.1 29.36 226.21 33.12 225.85 35.98 222.38 35.09 219.27 31.33 219.63 28.47"/><polygon class="cls-7" points="215.26 23.01 218.3 24.04 221.12 28.04 220.89 31.01 217.85 29.98 215.04 25.98 215.26 23.01"/><polygon class="cls-7" points="212.69 29.27 215.88 28.94 220.11 31.4 221.14 34.19 217.95 34.52 213.72 32.06 212.69 29.27"/><polygon class="cls-7" points="205.04 29.32 207.9 27.85 212.73 28.61 214.71 30.83 211.85 32.3 207.02 31.54 205.04 29.32"/><polygon class="cls-7" points="200.49 23.42 203.53 24.45 206.35 28.46 206.13 31.42 203.09 30.39 200.27 26.39 200.49 23.42"/><polygon class="cls-7" points="238.22 44.59 235.01 44.68 230.99 41.9 230.17 39.04 233.38 38.95 237.41 41.73 238.22 44.59"/><polygon class="cls-7" points="229.18 25.96 229.89 29.09 227.95 33.59 225.3 34.95 224.59 31.82 226.53 27.32 229.18 25.96"/><polygon class="cls-7" points="231.62 19.19 231.95 22.38 229.48 26.61 226.69 27.64 226.37 24.45 228.83 20.22 231.62 19.19"/><polygon class="cls-7" points="234.09 25.58 233.8 28.78 230.58 32.46 227.65 32.95 227.93 29.75 231.15 26.07 234.09 25.58"/><polygon class="cls-7" points="232.54 14.21 232.87 17.4 230.4 21.63 227.61 22.67 227.28 19.47 229.75 15.24 232.54 14.21"/><polygon class="cls-7" points="239.22 37.48 236.54 39.25 231.65 39.03 229.44 37.03 232.12 35.26 237.01 35.49 239.22 37.48"/><polygon class="cls-7" points="236.34 36.48 238.47 34.07 243.25 33.02 245.9 34.38 243.77 36.78 238.99 37.83 236.34 36.48"/><polygon class="cls-7" points="235.31 41.56 238.5 41.9 242.13 45.17 242.57 48.12 239.38 47.78 235.74 44.5 235.31 41.56"/><polygon class="cls-7" points="244.36 42.95 247.44 42.03 252.05 43.67 253.58 46.23 250.5 47.14 245.89 45.5 244.36 42.95"/><polygon class="cls-7" points="236.12 51.63 239.16 52.66 241.98 56.66 241.75 59.63 238.72 58.59 235.9 54.59 236.12 51.63"/><polygon class="cls-7" points="226.05 50.93 229.09 51.96 231.91 55.96 231.68 58.93 228.64 57.9 225.83 53.9 226.05 50.93"/><polygon class="cls-7" points="226.34 52.66 227.25 55.74 225.61 60.35 223.06 61.88 222.15 58.81 223.79 54.2 226.34 52.66"/><polygon class="cls-7" points="228.05 56.2 231.09 57.24 233.91 61.24 233.68 64.2 230.64 63.17 227.83 59.17 228.05 56.2"/><polygon class="cls-7" points="246.63 53.37 243.59 52.34 240.77 48.34 241 45.37 244.04 46.4 246.85 50.4 246.63 53.37"/></svg>